<?xml version="1.0" standalone="no"?>
<!DOCTYPE svg PUBLIC "-//W3C//DTD SVG 20010904//EN"
 "http://www.w3.org/TR/2001/REC-SVG-20010904/DTD/svg10.dtd">
<svg version="1.0" xmlns="http://www.w3.org/2000/svg"
 width="320.000000pt" height="320.000000pt" viewBox="0 0 320.000000 320.000000"
 preserveAspectRatio="xMidYMid meet">
<metadata>
Created by potrace 1.14, written by Peter Selinger 2001-2017
</metadata>
<g transform="translate(0.000000,320.000000) scale(0.100000,-0.100000)"
fill="#000000" stroke="none">
<path d="M1985 2975 c-32 -31 -32 -66 0 -103 26 -31 32 -52 15 -52 -5 0 -10
-16 -10 -35 0 -19 -4 -35 -10 -35 -5 0 -10 -21 -10 -47 -1 -125 -55 -273 -134
-361 -50 -58 -53 -69 -31 -112 14 -26 14 -30 1 -30 -9 0 -20 -9 -26 -20 -8
-15 -6 -24 10 -40 17 -17 20 -33 20 -100 0 -47 -4 -80 -10 -80 -5 0 -10 -12
-10 -27 -1 -24 -14 -37 -92 -88 -128 -84 -327 -281 -408 -405 -76 -117 -170
-308 -204 -416 -14 -45 -30 -120 -37 -168 l-12 -86 -59 0 c-51 0 -58 -2 -58
-20 0 -11 6 -20 13 -20 8 0 24 -12 38 -26 23 -25 24 -32 22 -142 -1 -65 -8
-142 -15 -172 -12 -51 -15 -55 -46 -58 l-32 -3 0 -65 0 -64 453 0 453 0 -46
48 c-70 73 -85 111 -84 217 0 71 6 106 28 168 15 42 27 87 26 100 -5 58 -2 63
39 59 31 -3 44 2 73 27 46 40 62 97 56 200 -6 99 -24 131 -73 131 -40 0 -41 2
-19 36 16 23 15 28 -10 83 -54 120 -26 259 67 335 59 47 94 63 170 77 l67 12
0 234 0 233 -45 0 c-25 0 -45 -5 -45 -11 0 -6 -14 -9 -32 -7 -62 6 -44 78 19
78 14 0 23 -6 23 -15 0 -11 11 -15 40 -15 l40 0 0 45 c0 45 0 45 -35 45 -19 0
-35 -4 -35 -10 0 -17 -67 -12 -74 6 -10 27 12 54 44 54 17 0 30 -4 30 -10 0
-5 16 -10 35 -10 32 0 35 3 35 28 0 15 -7 36 -15 46 -21 27 -19 43 6 49 11 3
25 19 32 36 6 17 17 31 24 31 16 0 16 0 -3 45 -8 20 -19 74 -24 118 -6 45 -14
83 -20 85 -5 2 -10 19 -10 38 0 19 -4 34 -10 34 -17 0 -11 21 15 52 14 16 25
41 25 54 0 35 -42 74 -80 74 -19 0 -40 -9 -55 -25z"/>
</g>
</svg>
