<?xml version="1.0" standalone="no"?>
<!DOCTYPE svg PUBLIC "-//W3C//DTD SVG 20010904//EN"
 "http://www.w3.org/TR/2001/REC-SVG-20010904/DTD/svg10.dtd">
<svg version="1.0" xmlns="http://www.w3.org/2000/svg"
 width="412.000000pt" height="412.000000pt" viewBox="0 0 412.000000 412.000000"
 preserveAspectRatio="xMidYMid meet">
<metadata>
Created by potrace 1.14, written by Peter Selinger 2001-2017
</metadata>
<g transform="translate(0.000000,412.000000) scale(0.100000,-0.100000)"
fill="#000000" stroke="none">
<path d="M2553 3826 c-23 -20 -28 -32 -28 -71 0 -39 5 -51 28 -70 27 -24 37
-55 17 -55 -5 0 -10 -20 -10 -44 0 -24 -5 -46 -10 -48 -6 -2 -15 -44 -20 -93
-21 -185 -68 -302 -165 -414 -59 -67 -68 -98 -38 -140 16 -23 15 -25 -10 -43
-32 -23 -35 -53 -7 -70 18 -11 20 -24 20 -115 0 -85 -3 -103 -15 -103 -11 0
-15 -11 -15 -38 0 -38 -3 -41 -82 -94 -323 -215 -520 -442 -694 -802 -92 -191
-154 -400 -154 -522 l0 -34 -75 0 c-65 0 -75 -2 -75 -17 1 -10 15 -27 33 -38
47 -29 67 -77 67 -160 0 -73 -22 -233 -40 -297 -10 -36 -13 -38 -50 -38 l-40
0 0 -80 0 -80 566 0 566 0 -58 62 c-83 90 -109 151 -108 258 0 92 14 161 51
252 17 42 22 74 21 116 l-3 57 51 1 c28 1 60 7 72 13 31 17 68 70 81 116 14
51 14 179 0 230 -16 59 -35 75 -86 75 -49 0 -52 8 -21 50 l22 30 -23 53 c-43
97 -53 140 -48 203 13 171 150 306 342 337 l75 12 0 292 0 293 -50 0 c-34 0
-52 -5 -58 -16 -6 -11 -20 -14 -48 -12 -35 3 -39 6 -42 31 -5 39 23 67 65 67
26 0 33 -4 33 -20 0 -17 7 -20 50 -20 l50 0 0 60 0 60 -41 0 c-32 0 -42 -4
-46 -20 -6 -22 -41 -27 -74 -10 -27 15 -25 64 3 84 29 21 78 21 78 1 0 -11 11
-15 40 -15 37 0 40 2 40 28 0 15 -9 41 -20 57 -26 39 -25 52 4 59 16 4 31 20
43 46 10 22 24 40 31 40 16 0 15 7 -9 76 -12 33 -23 97 -26 147 -4 64 -9 87
-19 87 -10 0 -14 14 -14 45 0 25 -4 45 -10 45 -18 0 -10 32 15 62 76 90 -42
211 -132 134z"/>
</g>
</svg>
