<svg style="display:none">
    <defs>
        <symbol id="dome" viewBox="0 0 90 200">
            <path class="cls-1" d="m55.12,183.96c-.41-9.26,2.79-15.82,3.87-18.48,1.07-2.65.67-4.27,0-4.8-.67-.53.54-3.59.54-3.59,0,0,3.5.93,5.89.12,2.39-.8,6.29-4.3,6.29-12.32s-1.17-12.67-4.55-12.55c-3.36.14-3.5.37-3.5.37v-1.85s2.83-1.72,1.88-4.42c-.94-2.69-4.38-6.18-3.46-14.46.91-8.27,8.01-14.53,14.03-16.69,6.03-2.15,9.99-1.62,9.99-1.62v-33.85s-6.14,0-6.14,0l-.23,1.86h-3.6s-2.08-.52-1.8-2.93c.3-2.42,2.51-2.96,2.51-2.96h3.6s-.25,2.06-.25,2.06h5.9s0-6.58,0-6.58h-4.95s-.24,1.94-.24,1.94h-3.59s-2.09-.52-1.8-2.95c.28-2.4,2.51-2.94,2.51-2.94h3.6s-.2,1.7-.2,1.7h4.68s0-2.55,0-2.55c0,0-.64-1.85-1.43-2.8-.81-.94-1.35-2.83-.28-2.96,1.07-.13,2.01-.31,2.42-1.35.4-1.06,1.11-1.18,1.36-2.4.23-1.19.36-1.33,1.17-1.47.81-.13,1.08,0,1.08,0,0,0-2.94-6.15-3.2-11.24-.27-5.08-.4-6.53-.4-6.53h-1.29v-4.88s-1.53,0-1.53,0v-2.22c1.97-.85,3.34-2.8,3.34-5.1,0-3.06-2.48-5.53-5.54-5.53s-5.54,2.47-5.54,5.53c0,2.36,1.45,4.35,3.5,5.17l.11,2.15h-1.32s0,4.88,0,4.88h-1.31s-.14,10-3.06,18.26c-3.74,10.64-10.02,12.34-10.02,15.77,0,2.86,2.2,5.05,2.2,5.05,0,0-3.51.65-3.51,2.92s2.69,2.04,2.69,3.35v11.16h-1.79s0,4.24,0,4.24c0,0-20.66,11.74-32.77,28.93-22.49,31.94-20.54,51.83-20.54,51.83H1.47s0,2.59,0,2.59c0,0,3.34.15,4.78,3.43,1.53,3.52,1.6,5.89.61,14.5-.85,7.4-2.61,11.42-2.61,11.42H0s0,8.79,0,8.79h65.2s-9.68-6.79-10.08-16.04"/>
        </symbol>
    </defs>
</svg>