<svg style="display:none">
<defs>
<symbol id="home-logo" viewBox="0 0 346 408">
  <path fill="var(--home-logo-dome)" d="m280.1,296.11c-.65-14.9,4.49-25.47,6.22-29.74,1.73-4.27,1.08-6.87,0-7.73-1.08-.86.87-5.78.87-5.78,0,0,5.63,1.49,9.48.19,3.84-1.28,10.12-6.92,10.12-19.82,0-12.9-1.89-20.4-7.32-20.2-5.41.22-5.63.59-5.63.59v-2.97s4.55-2.76,3.03-7.11c-1.51-4.32-7.04-9.95-5.58-23.28,1.46-13.31,12.89-23.39,22.58-26.87,9.7-3.46,16.08-2.6,16.08-2.6v-54.49s-9.88,0-9.88,0l-.37,2.99h-5.79s-3.35-.83-2.89-4.72c.48-3.9,4.04-4.77,4.04-4.77h5.79s-.4,3.32-.4,3.32h9.49s0-10.58,0-10.58h-7.96s-.39,3.13-.39,3.13h-5.78s-3.36-.84-2.9-4.75c.46-3.86,4.03-4.73,4.03-4.73h5.8s-.33,2.74-.33,2.74h7.53s0-4.1,0-4.1c0,0-1.03-2.97-2.31-4.51-1.3-1.51-2.18-4.56-.44-4.77,1.72-.21,3.23-.49,3.89-2.17.65-1.7,1.79-1.89,2.19-3.86.37-1.92.58-2.14,1.88-2.37,1.31-.21,1.74,0,1.74,0,0,0-4.73-9.89-5.16-18.09-.44-8.18-.65-10.51-.65-10.51h-2.08v-7.86s-2.46,0-2.46,0v-3.57c3.17-1.37,5.37-4.5,5.37-8.2,0-4.92-4-8.9-8.92-8.9-4.94,0-8.93,3.98-8.93,8.9,0,3.79,2.34,7.01,5.63,8.32l.18,3.46h-2.13s0,7.86,0,7.86h-2.12s-.22,16.1-4.92,29.39c-6.03,17.13-16.13,19.87-16.13,25.39,0,4.6,3.55,8.14,3.55,8.14,0,0-5.64,1.05-5.64,4.71,0,3.7,4.33,3.29,4.33,5.4v17.96h-2.88s0,6.83,0,6.83c0,0-33.26,18.9-52.74,46.57-36.2,51.42-33.06,83.44-33.06,83.44h-14.44s0,4.17,0,4.17c0,0,5.38.24,7.69,5.52,2.46,5.66,2.58,9.49.98,23.34-1.37,11.91-4.2,18.39-4.2,18.39h-6.84s0,14.16,0,14.16h104.94s-15.58-10.93-16.22-25.83"/>
  <g>
    <g>
      <path fill="var(--home-logo-amalfi)" d="m111.45,371.65h5.91v-36.46h-5.91v-.75h17.16v.75h-5.92v36.46h9.49c3.13,0,5.58-.98,7.36-2.93,1.78-1.96,3.07-4.62,3.89-8h.58v11.67h-32.56v-.74Z"/>
      <path fill="var(--home-logo-amalfi)" d="m142.77,371.65h5.91v-36.46h-5.91v-.75h30.49v9.23h-.58c-.46-1.39-.96-2.6-1.49-3.63-.54-1.07-1.18-1.96-1.93-2.67-.74-.75-1.63-1.29-2.66-1.65-1.03-.36-2.28-.53-3.73-.53h-8.85v17.27h3.47c1.17,0,2.17-.11,2.98-.33.82-.21,1.51-.6,2.08-1.17.6-.61,1.1-1.4,1.49-2.4.43-1.03.84-2.34,1.22-3.94h.59v16.58h-.59c-.24-1.03-.52-2.02-.79-2.99-.25-.95-.63-1.81-1.12-2.55-.46-.74-1.1-1.34-1.92-1.76-.78-.46-1.81-.69-3.09-.69h-4.32v18.44h5.92v.74h-17.16v-.74Z"/>
      <path fill="var(--home-logo-amalfi)" d="m17.32,340.57l5.86,15.51h-11.72l5.87-15.51Zm1.76-7.09l-14.4,38.17H0v.74h11.46v-.74h-5.92l5.6-14.82h12.36l5.6,14.82h-5.92v.74h16.42v-.74h-4.74l-14.5-38.17h-1.27Z"/>
      <polygon fill="var(--home-logo-amalfi)" points="35.74 371.65 41.66 371.65 41.66 335.19 35.74 335.19 35.74 334.44 47.74 334.44 57.6 363.12 57.71 363.12 67.57 334.44 79.35 334.44 79.35 335.19 73.43 335.19 73.43 371.65 79.35 371.65 79.35 372.39 62.18 372.39 62.18 371.65 68.1 371.65 68.1 335.51 67.99 335.51 55.26 372.45 42.57 335.88 42.46 335.88 42.46 371.65 48.38 371.65 48.38 372.39 35.74 372.39 35.74 371.65"/>
      <path fill="var(--home-logo-amalfi)" d="m92.81,340.57l-5.87,15.51h11.73l-5.86-15.51Zm-17.33,31.08h4.7l14.4-38.16h1.27l14.5,38.16h4.74v.74h-16.42v-.74h5.92l-5.6-14.82h-12.37l-5.6,14.82h5.92v.74h-11.46v-.74Z"/>
      <polygon fill="var(--home-logo-amalfi)" points="174.59 371.65 180.5 371.65 180.5 335.19 174.59 335.19 174.59 334.44 191.75 334.44 191.75 335.19 185.84 335.19 185.84 371.65 191.75 371.65 191.75 372.39 174.59 372.39 174.59 371.65"/>
    </g>
    <g>
      <path fill="var(--home-logo-coast)" d="m220.48,372.39h-.8c-.25-.28-.53-.53-.86-.74-.32-.25-.82-.37-1.49-.37-.53,0-1.12.1-1.76.32-.61.18-1.32.4-2.13.64-.79.25-1.67.47-2.67.63-1,.22-2.1.32-3.31.32-2.23,0-4.42-.4-6.55-1.22-2.1-.82-4.09-2.15-5.98-4-1.73-1.74-3.19-3.8-4.37-6.18-1.17-2.38-1.76-5.13-1.76-8.26,0-2.67.49-5.2,1.44-7.62.96-2.42,2.29-4.55,3.99-6.4,1.71-1.84,3.71-3.3,6.02-4.37,2.32-1.1,4.84-1.65,7.58-1.65,1.1,0,2.07.1,2.93.32.85.21,1.62.46,2.29.75.67.25,1.3.48,1.87.7.57.21,1.12.32,1.65.32.71,0,1.21-.11,1.49-.32.32-.25.61-.52.85-.8h.8v10.66h-.58c-.32-1.35-.73-2.68-1.23-4-.5-1.32-1.19-2.47-2.08-3.47-.89-1.03-2.02-1.85-3.41-2.45-1.35-.64-3.03-.96-5.06-.96-1.88,0-3.5.3-4.85.91-1.35.56-2.49,1.35-3.41,2.35-.93.96-1.67,2.09-2.24,3.41-.53,1.28-.94,2.64-1.23,4.1-.28,1.43-.47,2.88-.58,4.38-.08,1.45-.11,2.84-.11,4.16,0,3.73.31,6.82.91,9.27.6,2.45,1.44,4.39,2.51,5.81,1.1,1.42,2.42,2.42,3.95,2.99,1.53.57,3.22.86,5.06.86,2.38,0,4.3-.34,5.76-1.01,1.46-.68,2.63-1.55,3.52-2.61.89-1.1,1.56-2.32,2.02-3.68.46-1.38.87-2.75,1.23-4.1h.58v11.34Z"/>
      <path fill="var(--home-logo-coast)" d="m225.97,353.36c0,3.2.21,5.99.64,8.37.42,2.38,1.14,4.37,2.13,5.97,1,1.6,2.27,2.79,3.84,3.57,1.56.78,3.51,1.17,5.81,1.17s4.2-.39,5.76-1.17c1.6-.78,2.9-1.98,3.89-3.57.99-1.6,1.7-3.59,2.13-5.97.43-2.38.64-5.18.64-8.37,0-2.45-.16-4.82-.48-7.09-.32-2.31-.94-4.36-1.86-6.13-.89-1.81-2.15-3.26-3.79-4.32-1.6-1.06-3.7-1.6-6.29-1.6s-4.71.53-6.34,1.6c-1.6,1.06-2.86,2.51-3.79,4.32-.89,1.77-1.48,3.82-1.8,6.13-.32,2.27-.48,4.64-.48,7.09m-6.13,0c0-2.85.54-5.48,1.65-7.89,1.14-2.41,2.58-4.51,4.33-6.28,1.77-1.78,3.76-3.17,5.97-4.17,2.2-1.03,4.4-1.54,6.61-1.54,2.35,0,4.62.51,6.82,1.54,2.24,1,4.23,2.38,5.97,4.17,1.74,1.77,3.13,3.87,4.16,6.28,1.07,2.42,1.6,5.05,1.6,7.89,0,2.49-.49,4.92-1.44,7.3-.96,2.39-2.28,4.5-3.94,6.35-1.68,1.84-3.64,3.34-5.92,4.49-2.24,1.13-4.66,1.7-7.25,1.7s-5.14-.55-7.41-1.65c-2.27-1.11-4.25-2.56-5.92-4.37-1.63-1.85-2.91-3.97-3.83-6.35-.93-2.42-1.38-4.9-1.38-7.46"/>
      <path fill="var(--home-logo-coast)" d="m288.54,360.94h.59c.38,1.91.88,3.53,1.49,4.85.63,1.32,1.33,2.4,2.07,3.26.75.85,1.54,1.5,2.35,1.97.82.46,1.63.8,2.45,1.02.85.21,1.66.34,2.4.36.78.04,1.51.06,2.19.06,1.88,0,3.43-.29,4.64-.85,1.21-.57,2.17-1.28,2.88-2.13.71-.89,1.21-1.83,1.49-2.83.29-1.03.43-1.97.43-2.83,0-1.24-.23-2.31-.69-3.2-.46-.89-1.05-1.63-1.76-2.24-.71-.65-1.49-1.15-2.34-1.55-.81-.39-1.6-.69-2.35-.9l-6.13-1.87c-2.88-.88-5.06-2.06-6.55-3.52-1.46-1.46-2.19-3.41-2.19-5.86,0-1.6.29-3.07.85-4.43.57-1.38,1.37-2.58,2.4-3.57,1.03-1,2.26-1.78,3.69-2.35,1.45-.57,3.03-.85,4.73-.85,1.25,0,2.28.1,3.1.32.85.21,1.58.45,2.19.74.6.25,1.13.48,1.6.7.49.21.99.32,1.49.32.46,0,.76-.05.91-.16.17-.14.41-.46.68-.96h.76v9.65h-.64c-.21-1.28-.58-2.51-1.12-3.68-.49-1.21-1.16-2.26-1.97-3.15-.82-.92-1.81-1.65-2.99-2.18-1.13-.57-2.47-.85-4-.85-.85,0-1.79.13-2.82.37-1.03.21-1.99.61-2.88,1.17-.89.57-1.63,1.31-2.23,2.24-.57.93-.85,2.1-.85,3.52,0,1.13.23,2.1.69,2.92.46.78,1.05,1.46,1.77,2.03.74.53,1.55.99,2.45,1.38.92.36,1.85.67,2.77.96l6.45,2.03c.68.22,1.53.5,2.56.86,1.03.35,2.02.89,2.99,1.6.99.71,1.83,1.64,2.51,2.82.71,1.17,1.06,2.66,1.06,4.47,0,1.68-.32,3.27-.96,4.8-.6,1.48-1.5,2.82-2.66,3.99-1.18,1.14-2.6,2.07-4.27,2.78-1.67.68-3.56,1.01-5.64,1.01-.75,0-1.41-.02-1.98-.05-.56,0-1.1-.04-1.6-.11-.5-.07-1-.16-1.49-.27-.5-.06-1.05-.19-1.66-.37-.71-.21-1.47-.46-2.29-.74-.81-.29-1.52-.43-2.13-.43-.53,0-.91.11-1.12.32-.17.21-.33.5-.48.84h-.8v-11.45Z"/>
      <path fill="var(--home-logo-coast)" d="m321.14,371.65h5.91v-36.46h-3.09c-.71,0-1.51.07-2.4.21-.89.11-1.8.45-2.72,1.02-.88.56-1.76,1.47-2.6,2.72-.82,1.21-1.53,2.9-2.14,5.06h-.58v-9.75h32.4v9.75h-.58c-.61-2.16-1.34-3.85-2.19-5.06-.82-1.24-1.69-2.15-2.61-2.72-.89-.57-1.78-.91-2.66-1.02-.89-.14-1.69-.21-2.4-.21h-3.09v36.46h5.91v.74h-17.16v-.74Z"/>
      <path fill="var(--home-logo-coast)" d="m266.43,340.57l-5.86,15.51h11.73l-5.87-15.51Zm-17.31,31.08h4.68l14.39-38.16h1.29l14.49,38.16h4.75v.74h-16.42v-.74h5.92l-5.6-14.82h-12.36l-5.6,14.82h5.92v.74h-11.46v-.74Z"/>
    </g>
  </g>
  <g>
    <path fill="var(--home-logo-festival)" d="m5.54,390.66v2.24h.06c.6-.85,1.32-1.51,2.16-1.98.84-.47,1.81-.7,2.9-.7s2,.2,2.86.61c.86.41,1.52,1.12,1.97,2.14.49-.72,1.16-1.37,2-1.92.84-.55,1.84-.83,2.99-.83.87,0,1.69.11,2.43.32.75.21,1.39.55,1.92,1.02.53.47.95,1.08,1.25,1.84.3.76.45,1.67.45,2.74v11.07h-4.54v-9.38c0-.55-.02-1.08-.06-1.57-.04-.49-.16-.92-.35-1.28-.19-.36-.47-.65-.85-.86-.37-.21-.88-.32-1.52-.32s-1.16.12-1.55.37c-.4.25-.7.57-.93.96-.22.39-.37.84-.45,1.34-.07.5-.11,1.01-.11,1.52v9.22h-4.54v-9.28c0-.49-.01-.98-.03-1.46-.02-.48-.11-.92-.27-1.33s-.43-.73-.8-.98c-.37-.25-.92-.37-1.65-.37-.21,0-.5.05-.85.14-.35.1-.69.28-1.02.54-.33.27-.61.65-.85,1.15-.23.5-.35,1.16-.35,1.97v9.6H1.25v-16.54h4.29Z"/>
    <path fill="var(--home-logo-festival)" d="m43.83,407.21v-2.3h-.1c-.58.96-1.32,1.65-2.24,2.08-.92.43-1.86.64-2.82.64-1.22,0-2.21-.16-2.99-.48-.78-.32-1.39-.77-1.84-1.36-.45-.59-.76-1.3-.94-2.14-.18-.84-.27-1.78-.27-2.8v-10.18h4.54v9.34c0,1.37.21,2.38.64,3.06.43.67,1.18,1.01,2.27,1.01,1.24,0,2.13-.37,2.69-1.1.55-.74.83-1.95.83-3.63v-8.67h4.54v16.54h-4.32Z"/>
    <path fill="var(--home-logo-festival)" d="m58.11,403.09c.2.35.46.64.78.86s.69.39,1.1.5c.42.11.85.16,1.3.16.32,0,.66-.04,1.01-.11.35-.07.67-.19.96-.35.29-.16.53-.37.72-.64.19-.27.29-.6.29-1.01,0-.68-.45-1.19-1.36-1.54-.91-.34-2.17-.68-3.79-1.02-.66-.15-1.31-.32-1.94-.53-.63-.2-1.19-.47-1.68-.8-.49-.33-.89-.75-1.18-1.25s-.45-1.12-.45-1.84c0-1.07.21-1.94.62-2.62.42-.68.96-1.22,1.65-1.62.68-.39,1.45-.67,2.3-.83.85-.16,1.73-.24,2.62-.24s1.76.09,2.61.26c.84.17,1.59.46,2.26.86.66.41,1.21.94,1.65,1.62.44.67.7,1.52.78,2.54h-4.32c-.06-.88-.4-1.47-.99-1.78-.6-.31-1.3-.46-2.11-.46-.26,0-.53.02-.83.05s-.57.1-.82.21c-.25.11-.45.26-.62.46-.17.2-.26.48-.26.82,0,.41.15.74.45.99.3.26.69.46,1.17.62.48.16,1.03.3,1.65.43.62.13,1.25.27,1.89.42.66.15,1.31.33,1.94.54.63.21,1.19.5,1.68.85.49.35.88.79,1.18,1.31.3.52.45,1.17.45,1.94,0,1.09-.22,2-.66,2.74-.44.74-1.01,1.33-1.71,1.78-.7.45-1.51.76-2.42.94-.91.18-1.83.27-2.77.27s-1.9-.1-2.82-.29c-.92-.19-1.73-.51-2.45-.96-.71-.45-1.3-1.04-1.76-1.78-.46-.74-.71-1.66-.75-2.77h4.32c0,.49.1.91.3,1.26Z"/>
    <path fill="var(--home-logo-festival)" d="m78.79,390.66v16.54h-4.54v-16.54h4.54Z"/>
    <path fill="var(--home-logo-festival)" d="m92.76,393.64c-.73,0-1.33.17-1.82.5-.49.33-.89.76-1.2,1.28-.31.52-.53,1.1-.66,1.73-.13.63-.19,1.25-.19,1.87s.06,1.21.19,1.82c.13.62.34,1.18.62,1.68.29.5.68.91,1.17,1.23.49.32,1.09.48,1.79.48,1.09,0,1.92-.3,2.51-.91.59-.61.95-1.42,1.1-2.45h4.38c-.3,2.2-1.15,3.87-2.56,5.02-1.41,1.15-3.21,1.73-5.41,1.73-1.24,0-2.37-.21-3.41-.62-1.04-.42-1.92-1-2.64-1.74-.73-.75-1.29-1.64-1.7-2.67-.41-1.03-.61-2.17-.61-3.41s.19-2.47.56-3.57c.37-1.1.92-2.05,1.65-2.85s1.61-1.42,2.66-1.87c1.04-.45,2.24-.67,3.58-.67.98,0,1.92.13,2.83.38.91.26,1.72.65,2.43,1.17.71.52,1.3,1.17,1.74,1.95.45.78.7,1.7.77,2.77h-4.45c-.3-1.9-1.42-2.85-3.36-2.85Z"/>
    <path fill="var(--home-logo-festival)" d="m116.05,406.95c-1.04.45-2.2.67-3.5.67-1.02,0-1.99-.15-2.9-.45-.91-.3-1.69-.74-2.35-1.33-.66-.59-1.18-1.3-1.57-2.14-.38-.84-.58-1.81-.58-2.9,0-.81.14-1.55.42-2.22.28-.67.66-1.28,1.14-1.82s1.03-1.03,1.65-1.46c.62-.43,1.26-.8,1.92-1.12-.62-.75-1.14-1.49-1.55-2.24-.42-.75-.62-1.62-.62-2.62,0-.79.17-1.5.5-2.14.33-.64.77-1.19,1.33-1.65.55-.46,1.19-.81,1.9-1.06s1.46-.37,2.22-.37c.87,0,1.69.12,2.45.35.76.23,1.42.58,1.98,1.04.56.46,1.01,1.03,1.34,1.71.33.68.5,1.47.5,2.37,0,1.34-.39,2.47-1.17,3.39-.78.92-1.74,1.69-2.9,2.3l2.94,3.62c.23-.43.42-.87.54-1.33.13-.46.22-.92.29-1.39h3.94c-.11,1.02-.34,2.02-.7,2.98-.36.96-.86,1.85-1.5,2.66l4.64,5.41h-5.57l-1.86-2.27c-.92.9-1.89,1.57-2.93,2.02Zm-4.56-9.22c-.38.24-.73.51-1.02.83-.3.32-.54.67-.72,1.06-.18.38-.27.81-.27,1.28,0,.41.09.8.27,1.17.18.37.42.69.72.96.3.27.65.48,1.04.64.39.16.81.24,1.23.24.81,0,1.52-.19,2.13-.56.61-.37,1.18-.86,1.71-1.46l-3.9-4.77c-.41.17-.8.37-1.18.61Zm4.24-9.95c-.42-.43-.9-.64-1.46-.64s-1.04.19-1.44.56c-.41.37-.61.86-.61,1.46,0,.73.19,1.34.58,1.86.38.51.79,1.04,1.22,1.57.64-.41,1.19-.84,1.65-1.31.46-.47.69-1.12.69-1.95,0-.6-.21-1.11-.62-1.54Z"/>
    <path fill="var(--home-logo-festival)" d="m129.98,395.75c.06-1.07.33-1.95.8-2.66s1.07-1.27,1.79-1.7c.73-.43,1.54-.73,2.45-.91.91-.18,1.82-.27,2.74-.27.83,0,1.67.06,2.53.18.85.12,1.63.35,2.34.69.7.34,1.28.82,1.73,1.42.45.61.67,1.41.67,2.42v8.61c0,.75.04,1.46.13,2.14.08.68.23,1.2.45,1.54h-4.61c-.09-.26-.15-.52-.21-.78-.05-.27-.09-.54-.11-.82-.73.75-1.58,1.27-2.56,1.57-.98.3-1.98.45-3.01.45-.79,0-1.53-.1-2.21-.29-.68-.19-1.28-.49-1.79-.9-.51-.41-.91-.92-1.2-1.54s-.43-1.35-.43-2.21c0-.94.17-1.71.5-2.32.33-.61.76-1.09,1.28-1.46.52-.36,1.12-.63,1.79-.82.67-.18,1.35-.33,2.03-.43.68-.11,1.35-.19,2.02-.26.66-.06,1.25-.16,1.76-.29.51-.13.92-.31,1.22-.56.3-.24.44-.6.42-1.07,0-.49-.08-.88-.24-1.17s-.37-.51-.64-.67c-.27-.16-.58-.27-.93-.32-.35-.05-.73-.08-1.14-.08-.9,0-1.6.19-2.11.58-.51.38-.81,1.02-.9,1.92h-4.54Zm10.5,3.36c-.19.17-.43.3-.72.4s-.6.18-.93.24c-.33.06-.68.12-1.04.16-.36.04-.73.1-1.09.16-.34.06-.68.15-1.01.26-.33.11-.62.25-.86.43-.25.18-.44.41-.59.69-.15.28-.22.63-.22,1.06s.07.75.22,1.02c.15.28.35.5.61.66.26.16.55.27.9.34.34.06.69.1,1.06.1.9,0,1.59-.15,2.08-.45.49-.3.85-.66,1.09-1.07.23-.42.38-.84.43-1.26.05-.43.08-.77.08-1.02v-1.7Z"/>
    <path fill="var(--home-logo-festival)" d="m155.52,390.66v3.07h.06c.21-.51.5-.99.86-1.42.36-.44.78-.81,1.25-1.12.47-.31.97-.55,1.5-.72.53-.17,1.09-.26,1.66-.26.3,0,.63.05.99.16v4.22c-.21-.04-.47-.08-.77-.11-.3-.03-.59-.05-.86-.05-.83,0-1.54.14-2.11.42-.58.28-1.04.66-1.39,1.14-.35.48-.6,1.04-.75,1.68-.15.64-.22,1.33-.22,2.08v7.46h-4.54v-16.54h4.32Z"/>
    <path fill="var(--home-logo-festival)" d="m176.2,390.66v3.04h-3.33v8.19c0,.77.13,1.28.38,1.54.26.26.77.38,1.54.38.26,0,.5-.01.74-.03.23-.02.46-.05.67-.1v3.52c-.38.06-.81.11-1.28.13-.47.02-.93.03-1.38.03-.7,0-1.37-.05-2-.14-.63-.1-1.18-.28-1.66-.56s-.86-.67-1.14-1.18c-.28-.51-.42-1.18-.42-2.02v-9.76h-2.75v-3.04h2.75v-4.96h4.54v4.96h3.33Z"/>
    <path fill="var(--home-logo-festival)" d="m184.99,403.09c.2.35.46.64.78.86s.69.39,1.1.5c.42.11.85.16,1.3.16.32,0,.66-.04,1.01-.11.35-.07.67-.19.96-.35.29-.16.53-.37.72-.64.19-.27.29-.6.29-1.01,0-.68-.45-1.19-1.36-1.54-.91-.34-2.17-.68-3.79-1.02-.66-.15-1.31-.32-1.94-.53-.63-.2-1.19-.47-1.68-.8-.49-.33-.89-.75-1.18-1.25s-.45-1.12-.45-1.84c0-1.07.21-1.94.62-2.62.42-.68.96-1.22,1.65-1.62.68-.39,1.45-.67,2.3-.83.85-.16,1.73-.24,2.62-.24s1.76.09,2.61.26c.84.17,1.59.46,2.26.86.66.41,1.21.94,1.65,1.62.44.67.7,1.52.78,2.54h-4.32c-.06-.88-.4-1.47-.99-1.78-.6-.31-1.3-.46-2.11-.46-.26,0-.53.02-.83.05s-.57.1-.82.21c-.25.11-.45.26-.62.46-.17.2-.26.48-.26.82,0,.41.15.74.45.99.3.26.69.46,1.17.62.48.16,1.03.3,1.65.43.62.13,1.25.27,1.89.42.66.15,1.31.33,1.94.54.63.21,1.19.5,1.68.85.49.35.88.79,1.18,1.31.3.52.45,1.17.45,1.94,0,1.09-.22,2-.66,2.74-.44.74-1.01,1.33-1.71,1.78-.7.45-1.51.76-2.42.94-.91.18-1.83.27-2.77.27s-1.9-.1-2.82-.29c-.92-.19-1.73-.51-2.45-.96-.71-.45-1.3-1.04-1.76-1.78-.46-.74-.71-1.66-.75-2.77h4.32c0,.49.1.91.3,1.26Z"/>
    <path fill="var(--home-logo-festival)" d="m217.49,384.36v4.22h-11.04v5.28h9.57v3.9h-9.57v9.44h-5.02v-22.85h16.06Z"/>
    <path fill="var(--home-logo-festival)" d="m226.78,403.24c.68.66,1.66.99,2.94.99.92,0,1.71-.23,2.37-.69.66-.46,1.07-.94,1.22-1.46h4c-.64,1.98-1.62,3.4-2.94,4.26-1.32.85-2.92,1.28-4.8,1.28-1.3,0-2.48-.21-3.52-.62-1.05-.42-1.93-1.01-2.66-1.78-.73-.77-1.29-1.68-1.68-2.75-.4-1.07-.59-2.24-.59-3.52s.2-2.39.61-3.46c.4-1.07.98-1.99,1.73-2.77.75-.78,1.64-1.39,2.67-1.84,1.03-.45,2.18-.67,3.44-.67,1.41,0,2.63.27,3.68.82,1.04.54,1.9,1.27,2.58,2.19.67.92,1.16,1.96,1.46,3.14.3,1.17.41,2.4.32,3.68h-11.94c.06,1.47.44,2.54,1.12,3.2Zm5.14-8.7c-.54-.6-1.37-.9-2.48-.9-.73,0-1.33.12-1.81.37s-.86.55-1.15.91c-.29.36-.49.75-.61,1.15-.12.41-.19.77-.21,1.09h7.39c-.21-1.15-.59-2.03-1.14-2.62Z"/>
    <path fill="var(--home-logo-festival)" d="m246.61,403.09c.2.35.46.64.78.86s.69.39,1.1.5c.42.11.85.16,1.3.16.32,0,.66-.04,1.01-.11.35-.07.67-.19.96-.35.29-.16.53-.37.72-.64.19-.27.29-.6.29-1.01,0-.68-.45-1.19-1.36-1.54-.91-.34-2.17-.68-3.79-1.02-.66-.15-1.31-.32-1.94-.53-.63-.2-1.19-.47-1.68-.8-.49-.33-.89-.75-1.18-1.25s-.45-1.12-.45-1.84c0-1.07.21-1.94.62-2.62.42-.68.96-1.22,1.65-1.62.68-.39,1.45-.67,2.3-.83.85-.16,1.73-.24,2.62-.24s1.76.09,2.61.26c.84.17,1.59.46,2.26.86.66.41,1.21.94,1.65,1.62.44.67.7,1.52.78,2.54h-4.32c-.06-.88-.4-1.47-.99-1.78-.6-.31-1.3-.46-2.11-.46-.26,0-.53.02-.83.05s-.57.1-.82.21c-.25.11-.45.26-.62.46-.17.2-.26.48-.26.82,0,.41.15.74.45.99.3.26.69.46,1.17.62.48.16,1.03.3,1.65.43.62.13,1.25.27,1.89.42.66.15,1.31.33,1.94.54.63.21,1.19.5,1.68.85.49.35.88.79,1.18,1.31.3.52.45,1.17.45,1.94,0,1.09-.22,2-.66,2.74-.44.74-1.01,1.33-1.71,1.78-.7.45-1.51.76-2.42.94-.91.18-1.83.27-2.77.27s-1.9-.1-2.82-.29c-.92-.19-1.73-.51-2.45-.96-.71-.45-1.3-1.04-1.76-1.78-.46-.74-.71-1.66-.75-2.77h4.32c0,.49.1.91.3,1.26Z"/>
    <path fill="var(--home-logo-festival)" d="m271.69,390.66v3.04h-3.33v8.19c0,.77.13,1.28.38,1.54.26.26.77.38,1.54.38.26,0,.5-.01.74-.03.23-.02.46-.05.67-.1v3.52c-.38.06-.81.11-1.28.13-.47.02-.93.03-1.38.03-.7,0-1.37-.05-2-.14-.63-.1-1.18-.28-1.66-.56s-.86-.67-1.14-1.18c-.28-.51-.42-1.18-.42-2.02v-9.76h-2.75v-3.04h2.75v-4.96h4.54v4.96h3.33Z"/>
    <path fill="var(--home-logo-festival)" d="m281.39,390.66v16.54h-4.54v-16.54h4.54Z"/>
    <path fill="var(--home-logo-festival)" d="m291.61,407.21l-5.66-16.54h4.77l3.49,11.3h.06l3.49-11.3h4.51l-5.6,16.54h-5.06Z"/>
    <path fill="var(--home-logo-festival)" d="m306.04,395.75c.06-1.07.33-1.95.8-2.66s1.07-1.27,1.79-1.7c.73-.43,1.54-.73,2.45-.91.91-.18,1.82-.27,2.74-.27.83,0,1.67.06,2.53.18.85.12,1.63.35,2.34.69.7.34,1.28.82,1.73,1.42.45.61.67,1.41.67,2.42v8.61c0,.75.04,1.46.13,2.14.08.68.23,1.2.45,1.54h-4.61c-.09-.26-.15-.52-.21-.78-.05-.27-.09-.54-.11-.82-.73.75-1.58,1.27-2.56,1.57-.98.3-1.98.45-3.01.45-.79,0-1.53-.1-2.21-.29-.68-.19-1.28-.49-1.79-.9-.51-.41-.91-.92-1.2-1.54s-.43-1.35-.43-2.21c0-.94.17-1.71.5-2.32.33-.61.76-1.09,1.28-1.46.52-.36,1.12-.63,1.79-.82.67-.18,1.35-.33,2.03-.43.68-.11,1.35-.19,2.02-.26.66-.06,1.25-.16,1.76-.29.51-.13.92-.31,1.22-.56.3-.24.44-.6.42-1.07,0-.49-.08-.88-.24-1.17s-.37-.51-.64-.67c-.27-.16-.58-.27-.93-.32-.35-.05-.73-.08-1.14-.08-.9,0-1.6.19-2.11.58-.51.38-.81,1.02-.9,1.92h-4.54Zm10.5,3.36c-.19.17-.43.3-.72.4s-.6.18-.93.24c-.33.06-.68.12-1.04.16-.36.04-.73.1-1.09.16-.34.06-.68.15-1.01.26-.33.11-.62.25-.86.43-.25.18-.44.41-.59.69-.15.28-.22.63-.22,1.06s.07.75.22,1.02c.15.28.35.5.61.66.26.16.55.27.9.34.34.06.69.1,1.06.1.9,0,1.59-.15,2.08-.45.49-.3.85-.66,1.09-1.07.23-.42.38-.84.43-1.26.05-.43.08-.77.08-1.02v-1.7Z"/>
    <path fill="var(--home-logo-festival)" d="m331.85,384.36v22.85h-4.54v-22.85h4.54Z"/>
  </g>
</symbol>
</defs>
</svg>