<svg style="display:none">
<defs>
<symbol id="home-logo" viewBox="0 0 346 400">
  <path fill="var(--logo-dome)" d="M280.1,296.1c-0.6-14.9,4.5-25.5,6.2-29.7s1.1-6.9,0-7.7c-1.1-0.9,0.9-5.8,0.9-5.8s5.6,1.5,9.5,0.2
    c3.8-1.3,10.1-6.9,10.1-19.8c0-12.9-1.9-20.4-7.3-20.2c-5.4,0.2-5.6,0.6-5.6,0.6v-3c0,0,4.5-2.8,3-7.1c-1.5-4.3-7-9.9-5.6-23.3
    c1.5-13.3,12.9-23.4,22.6-26.9c9.7-3.5,16.1-2.6,16.1-2.6V96.3h-9.9l-0.4,3h-5.8c0,0-3.4-0.8-2.9-4.7c0.5-3.9,4-4.8,4-4.8h5.8
    l-0.4,3.3h9.5V82.5h-8l-0.4,3.1h-5.8c0,0-3.4-0.8-2.9-4.8c0.5-3.9,4-4.7,4-4.7h5.8l-0.3,2.7h7.5v-4.1c0,0-1-3-2.3-4.5
    c-1.3-1.5-2.2-4.6-0.4-4.8c1.7-0.2,3.2-0.5,3.9-2.2c0.6-1.7,1.8-1.9,2.2-3.9c0.4-1.9,0.6-2.1,1.9-2.4c1.3-0.2,1.7,0,1.7,0
    s-4.7-9.9-5.2-18.1c-0.4-8.2-0.6-10.5-0.6-10.5H329v-7.9h-2.5v-3.6c3.2-1.4,5.4-4.5,5.4-8.2c0-4.9-4-8.9-8.9-8.9
    c-4.9,0-8.9,4-8.9,8.9c0,3.8,2.3,7,5.6,8.3l0.2,3.5h-2.1v7.9h-2.1c0,0-0.2,16.1-4.9,29.4c-6,17.1-16.1,19.9-16.1,25.4
    c0,4.6,3.5,8.1,3.5,8.1s-5.6,1.1-5.6,4.7c0,3.7,4.3,3.3,4.3,5.4v18h-2.9v6.8c0,0-33.3,18.9-52.7,46.6
    c-36.2,51.4-33.1,83.4-33.1,83.4h-14.4v4.2c0,0,5.4,0.2,7.7,5.5c2.5,5.7,2.6,9.5,1,23.3c-1.4,11.9-4.2,18.4-4.2,18.4h-6.8v14.2
    h104.9C296.3,321.9,280.7,311,280.1,296.1"/>
  <g fill="var(--logo-amalfi)">
    <path d="M111.4,371.6h5.9v-36.5h-5.9v-0.8h17.2v0.8h-5.9v36.5h9.5c3.1,0,5.6-1,7.4-2.9c1.8-2,3.1-4.6,3.9-8h0.6v11.7h-32.6
      L111.4,371.6L111.4,371.6z"/>
    <path d="M142.8,371.6h5.9v-36.5h-5.9v-0.8h30.5v9.2h-0.6c-0.5-1.4-1-2.6-1.5-3.6c-0.5-1.1-1.2-2-1.9-2.7
      c-0.7-0.8-1.6-1.3-2.7-1.6s-2.3-0.5-3.7-0.5H154v17.3h3.5c1.2,0,2.2-0.1,3-0.3c0.8-0.2,1.5-0.6,2.1-1.2c0.6-0.6,1.1-1.4,1.5-2.4
      c0.4-1,0.8-2.3,1.2-3.9h0.6v16.6h-0.6c-0.2-1-0.5-2-0.8-3c-0.2-1-0.6-1.8-1.1-2.5c-0.5-0.7-1.1-1.3-1.9-1.8
      c-0.8-0.5-1.8-0.7-3.1-0.7H154v18.4h5.9v0.7h-17.2L142.8,371.6L142.8,371.6z"/>
    <path d="M17.3,340.6l5.9,15.5H11.5L17.3,340.6L17.3,340.6z M19.1,333.5L4.7,371.6H0v0.7h11.5v-0.7H5.5l5.6-14.8h12.4l5.6,14.8
      h-5.9v0.7h16.4v-0.7h-4.7l-14.5-38.2L19.1,333.5L19.1,333.5z"/>
    <polygon points="35.7,371.6 41.7,371.6 41.7,335.2 35.7,335.2 35.7,334.4 47.7,334.4 57.6,363.1 57.7,363.1 67.6,334.4
      79.3,334.4 79.3,335.2 73.4,335.2 73.4,371.6 79.3,371.6 79.3,372.4 62.2,372.4 62.2,371.6 68.1,371.6 68.1,335.5 68,335.5
      55.3,372.4 42.6,335.9 42.5,335.9 42.5,371.6 48.4,371.6 48.4,372.4 35.7,372.4      "/>
    <path d="M92.8,340.6l-5.9,15.5h11.7L92.8,340.6z M75.5,371.6h4.7l14.4-38.2h1.3l14.5,38.2h4.7v0.7H98.7v-0.7h5.9L99,356.8H86.6
      L81,371.6h5.9v0.7H75.5C75.5,372.4,75.5,371.6,75.5,371.6z"/>
    <polygon points="174.6,371.6 180.5,371.6 180.5,335.2 174.6,335.2 174.6,334.4 191.8,334.4 191.8,335.2 185.8,335.2 185.8,371.6
      191.8,371.6 191.8,372.4 174.6,372.4       "/>
  </g>
  <g fill="var(--logo-coast)">
    <path d="M220.5,372.4h-0.8c-0.2-0.3-0.5-0.5-0.9-0.7c-0.3-0.2-0.8-0.4-1.5-0.4c-0.5,0-1.1,0.1-1.8,0.3c-0.6,0.2-1.3,0.4-2.1,0.6
      c-0.8,0.2-1.7,0.5-2.7,0.6c-1,0.2-2.1,0.3-3.3,0.3c-2.2,0-4.4-0.4-6.6-1.2c-2.1-0.8-4.1-2.1-6-4c-1.7-1.7-3.2-3.8-4.4-6.2
      c-1.2-2.4-1.8-5.1-1.8-8.3c0-2.7,0.5-5.2,1.4-7.6c1-2.4,2.3-4.5,4-6.4c1.7-1.8,3.7-3.3,6-4.4c2.3-1.1,4.8-1.6,7.6-1.6
      c1.1,0,2.1,0.1,2.9,0.3c0.9,0.2,1.6,0.5,2.3,0.8c0.7,0.2,1.3,0.5,1.9,0.7c0.6,0.2,1.1,0.3,1.6,0.3c0.7,0,1.2-0.1,1.5-0.3
      c0.3-0.2,0.6-0.5,0.9-0.8h0.8v10.7h-0.6c-0.3-1.4-0.7-2.7-1.2-4s-1.2-2.5-2.1-3.5c-0.9-1-2-1.9-3.4-2.5c-1.4-0.6-3-1-5.1-1
      c-1.9,0-3.5,0.3-4.9,0.9c-1.4,0.6-2.5,1.4-3.4,2.4c-0.9,1-1.7,2.1-2.2,3.4c-0.5,1.3-0.9,2.6-1.2,4.1c-0.3,1.4-0.5,2.9-0.6,4.4
      c-0.1,1.5-0.1,2.8-0.1,4.2c0,3.7,0.3,6.8,0.9,9.3c0.6,2.5,1.4,4.4,2.5,5.8c1.1,1.4,2.4,2.4,3.9,3c1.5,0.6,3.2,0.9,5.1,0.9
      c2.4,0,4.3-0.3,5.8-1c1.5-0.7,2.6-1.5,3.5-2.6c0.9-1.1,1.6-2.3,2-3.7c0.5-1.4,0.9-2.8,1.2-4.1h0.6L220.5,372.4L220.5,372.4z"/>
    <path d="M226,353.3c0,3.2,0.2,6,0.6,8.4c0.4,2.4,1.1,4.4,2.1,6c1,1.6,2.3,2.8,3.8,3.6c1.6,0.8,3.5,1.2,5.8,1.2s4.2-0.4,5.8-1.2
      c1.6-0.8,2.9-2,3.9-3.6c1-1.6,1.7-3.6,2.1-6c0.4-2.4,0.6-5.2,0.6-8.4c0-2.5-0.2-4.8-0.5-7.1c-0.3-2.3-0.9-4.4-1.9-6.1
      c-0.9-1.8-2.1-3.3-3.8-4.3c-1.6-1.1-3.7-1.6-6.3-1.6s-4.7,0.5-6.3,1.6c-1.6,1.1-2.9,2.5-3.8,4.3c-0.9,1.8-1.5,3.8-1.8,6.1
      C226.1,348.5,226,350.9,226,353.3 M219.9,353.3c0-2.9,0.5-5.5,1.6-7.9c1.1-2.4,2.6-4.5,4.3-6.3c1.8-1.8,3.8-3.2,6-4.2
      c2.2-1,4.4-1.5,6.6-1.5c2.4,0,4.6,0.5,6.8,1.5c2.2,1,4.2,2.4,6,4.2c1.7,1.8,3.1,3.9,4.2,6.3c1.1,2.4,1.6,5,1.6,7.9
      c0,2.5-0.5,4.9-1.4,7.3c-1,2.4-2.3,4.5-3.9,6.4c-1.7,1.8-3.6,3.3-5.9,4.5c-2.2,1.1-4.7,1.7-7.2,1.7s-5.1-0.5-7.4-1.6
      c-2.3-1.1-4.2-2.6-5.9-4.4c-1.6-1.9-2.9-4-3.8-6.4C220.3,358.4,219.9,355.9,219.9,353.3"/>
    <path d="M288.5,360.9h0.6c0.4,1.9,0.9,3.5,1.5,4.9c0.6,1.3,1.3,2.4,2.1,3.3c0.8,0.9,1.5,1.5,2.4,2c0.8,0.5,1.6,0.8,2.5,1
      c0.9,0.2,1.7,0.3,2.4,0.4c0.8,0,1.5,0.1,2.2,0.1c1.9,0,3.4-0.3,4.6-0.9c1.2-0.6,2.2-1.3,2.9-2.1c0.7-0.9,1.2-1.8,1.5-2.8
      c0.3-1,0.4-2,0.4-2.8c0-1.2-0.2-2.3-0.7-3.2s-1-1.6-1.8-2.2c-0.7-0.6-1.5-1.1-2.3-1.5c-0.8-0.4-1.6-0.7-2.4-0.9l-6.1-1.9
      c-2.9-0.9-5.1-2.1-6.5-3.5c-1.5-1.5-2.2-3.4-2.2-5.9c0-1.6,0.3-3.1,0.9-4.4c0.6-1.4,1.4-2.6,2.4-3.6c1-1,2.3-1.8,3.7-2.4
      c1.5-0.6,3-0.9,4.7-0.9c1.2,0,2.3,0.1,3.1,0.3c0.9,0.2,1.6,0.5,2.2,0.7c0.6,0.2,1.1,0.5,1.6,0.7c0.5,0.2,1,0.3,1.5,0.3
      c0.5,0,0.8,0,0.9-0.2c0.2-0.1,0.4-0.5,0.7-1h0.8v9.6h-0.6c-0.2-1.3-0.6-2.5-1.1-3.7c-0.5-1.2-1.2-2.3-2-3.1
      c-0.8-0.9-1.8-1.6-3-2.2c-1.1-0.6-2.5-0.9-4-0.9c-0.9,0-1.8,0.1-2.8,0.4c-1,0.2-2,0.6-2.9,1.2c-0.9,0.6-1.6,1.3-2.2,2.2
      c-0.6,0.9-0.9,2.1-0.9,3.5c0,1.1,0.2,2.1,0.7,2.9c0.5,0.8,1,1.5,1.8,2c0.7,0.5,1.5,1,2.5,1.4c0.9,0.4,1.9,0.7,2.8,1l6.5,2
      c0.7,0.2,1.5,0.5,2.6,0.9c1,0.4,2,0.9,3,1.6c1,0.7,1.8,1.6,2.5,2.8c0.7,1.2,1.1,2.7,1.1,4.5c0,1.7-0.3,3.3-1,4.8
      c-0.6,1.5-1.5,2.8-2.7,4c-1.2,1.1-2.6,2.1-4.3,2.8c-1.7,0.7-3.6,1-5.6,1c-0.8,0-1.4,0-2,0c-0.6,0-1.1,0-1.6-0.1
      c-0.5-0.1-1-0.2-1.5-0.3c-0.5-0.1-1-0.2-1.7-0.4c-0.7-0.2-1.5-0.5-2.3-0.7c-0.8-0.3-1.5-0.4-2.1-0.4c-0.5,0-0.9,0.1-1.1,0.3
      c-0.2,0.2-0.3,0.5-0.5,0.8h-0.8L288.5,360.9L288.5,360.9z"/>
    <path d="M321.1,371.6h5.9v-36.5H324c-0.7,0-1.5,0.1-2.4,0.2c-0.9,0.1-1.8,0.5-2.7,1c-0.9,0.6-1.8,1.5-2.6,2.7
      c-0.8,1.2-1.5,2.9-2.1,5.1h-0.6v-9.8h32.4v9.8h-0.6c-0.6-2.2-1.3-3.9-2.2-5.1c-0.8-1.2-1.7-2.1-2.6-2.7c-0.9-0.6-1.8-0.9-2.7-1
      c-0.9-0.1-1.7-0.2-2.4-0.2h-3.1v36.5h5.9v0.7h-17.2L321.1,371.6L321.1,371.6z"/>
    <path d="M266.4,340.6l-5.9,15.5h11.7L266.4,340.6L266.4,340.6z M249.1,371.6h4.7l14.4-38.2h1.3l14.5,38.2h4.8v0.7h-16.4v-0.7h5.9
      l-5.6-14.8h-12.4l-5.6,14.8h5.9v0.7h-11.5L249.1,371.6L249.1,371.6z"/>
  </g>
  <g fill="var(--logo-festival)">
    <path d="M46.3,386.3h4.4v1.8c0.4-0.5,0.9-1,1.6-1.5c0.7-0.4,1.4-0.7,2.2-0.7c1,0,1.9,0.2,2.5,0.6c0.6,0.4,1.1,0.9,1.4,1.6
      c1.1-1.5,2.4-2.2,4.2-2.2c1.7,0,2.9,0.4,3.6,1.3c0.7,0.9,1,2.2,1,3.9v7.1h-4.8v-6.1c0-0.9-0.1-1.5-0.3-1.9
      c-0.2-0.4-0.7-0.6-1.3-0.6c-0.6,0-1.1,0.2-1.3,0.7c-0.2,0.5-0.4,1.1-0.4,2v6h-4.8v-6.1c0-0.9-0.1-1.5-0.3-1.9
      c-0.2-0.4-0.7-0.6-1.3-0.6c-0.6,0-1.1,0.2-1.3,0.7c-0.2,0.5-0.4,1.1-0.4,2v6h-4.8V386.3z"/>
    <path d="M85.3,398.3h-4.4v-1.8c-0.6,0.8-1.2,1.3-1.8,1.7c-0.6,0.3-1.5,0.5-2.5,0.5c-1.3,0-2.4-0.4-3.2-1.3
      c-0.8-0.8-1.2-2.1-1.2-3.8v-7.3H77v6.5c0,0.8,0.1,1.4,0.4,1.7c0.3,0.3,0.7,0.5,1.3,0.5c0.7,0,1.1-0.2,1.4-0.7
      c0.3-0.5,0.4-1.2,0.4-2.2v-5.8h4.8V398.3z"/>
    <path d="M94.5,394.6c0,0.5,0.2,0.8,0.5,1.1c0.3,0.2,0.7,0.4,1.2,0.4c0.4,0,0.8-0.1,1.1-0.3c0.3-0.2,0.4-0.4,0.4-0.8
      c0-0.3-0.2-0.6-0.6-0.7c-0.4-0.2-1-0.3-1.9-0.5c-0.7-0.1-1.3-0.3-1.9-0.4s-1-0.3-1.5-0.6s-0.8-0.6-1.1-1.1c-0.3-0.5-0.4-1-0.4-1.7
      c0-0.7,0.2-1.4,0.5-1.9s0.8-0.9,1.3-1.2s1.2-0.5,1.8-0.7c0.7-0.1,1.3-0.2,2-0.2c0.7,0,1.4,0.1,2.1,0.2c0.7,0.1,1.3,0.3,1.8,0.6
      c0.6,0.3,1,0.7,1.4,1.2c0.4,0.5,0.6,1.1,0.6,1.9h-4.3c0-0.4-0.2-0.7-0.5-0.9c-0.2-0.2-0.6-0.3-1-0.3c-0.4,0-0.8,0.1-1,0.2
      c-0.2,0.1-0.4,0.4-0.4,0.6s0.2,0.5,0.6,0.7c0.4,0.1,1,0.3,1.9,0.5c0.8,0.2,1.4,0.3,2,0.5s1,0.4,1.5,0.6c0.5,0.3,0.9,0.6,1.2,1.1
      s0.5,1,0.5,1.7c0,1.3-0.5,2.3-1.6,3.1c-1.1,0.8-2.7,1.1-4.9,1.1c-0.8,0-1.5-0.1-2.1-0.2s-1.3-0.4-1.9-0.7c-0.6-0.3-1-0.7-1.4-1.3
      c-0.4-0.5-0.6-1.2-0.6-2H94.5z"/>
    <path d="M107.3,398.3v-12.1h4.8v12.1H107.3z"/>
    <path d="M125.5,390.9c0-0.5-0.2-0.9-0.5-1.2c-0.3-0.3-0.7-0.5-1.2-0.5c-0.4,0-0.8,0.1-1.1,0.3c-0.3,0.2-0.5,0.5-0.6,0.8
      c-0.2,0.3-0.3,0.7-0.3,1c-0.1,0.4-0.1,0.8-0.1,1.2c0,0.9,0.2,1.7,0.5,2.2c0.4,0.5,0.9,0.8,1.6,0.8c0.6,0,1-0.2,1.3-0.5
      c0.3-0.3,0.5-0.8,0.6-1.3h4.8c-0.1,0.9-0.3,1.6-0.7,2.3c-0.4,0.7-0.9,1.2-1.5,1.6c-0.6,0.4-1.3,0.7-2,0.9
      c-0.8,0.2-1.6,0.3-2.4,0.3c-1,0-1.9-0.1-2.7-0.4c-0.8-0.3-1.6-0.7-2.2-1.2s-1.1-1.2-1.4-2c-0.3-0.8-0.5-1.7-0.5-2.7
      c0-1,0.2-1.9,0.5-2.7c0.3-0.8,0.8-1.5,1.4-2s1.3-1,2.2-1.3c0.8-0.3,1.8-0.4,2.8-0.4c0.8,0,1.6,0.1,2.4,0.3c0.8,0.2,1.4,0.5,2,0.9
      c0.6,0.4,1.1,0.9,1.5,1.6c0.4,0.6,0.6,1.4,0.7,2.2H125.5z"/>
    <path d="M146.2,396.9c-0.6,0.5-1.4,0.9-2.4,1.3s-2,0.5-3.1,0.5c-0.8,0-1.5-0.1-2.2-0.3c-0.7-0.2-1.3-0.5-1.9-0.9
      c-0.5-0.4-1-0.9-1.3-1.4c-0.3-0.6-0.5-1.3-0.5-2c0-1.2,0.3-2.2,0.9-3c0.6-0.9,1.5-1.6,2.6-2.1c-0.5-0.5-0.8-1-1.1-1.5
      c-0.2-0.5-0.4-1-0.4-1.6c0-0.7,0.2-1.4,0.5-1.9c0.3-0.5,0.8-1,1.3-1.3c0.5-0.3,1.1-0.6,1.8-0.7c0.7-0.1,1.3-0.2,2-0.2
      c0.8,0,1.5,0.1,2.2,0.3c0.7,0.2,1.3,0.5,1.8,0.9c0.5,0.4,0.9,0.8,1.2,1.4c0.3,0.5,0.4,1.1,0.4,1.8c0,1-0.2,1.8-0.7,2.5
      s-1.1,1.3-2,1.7l1.4,1.5c0.4-0.4,0.8-0.8,1.1-1.4h4.4c-0.8,1.6-1.8,3-2.8,4l3.8,3.9h-5.8L146.2,396.9z M141.3,391.8
      c-0.6,0.3-1,0.6-1.3,0.9s-0.5,0.7-0.5,1.1c0,0.5,0.1,0.9,0.4,1.1c0.3,0.3,0.7,0.4,1.2,0.4c0.2,0,0.6-0.1,0.9-0.2
      c0.4-0.1,0.7-0.3,0.9-0.4c0.1,0,0.2-0.1,0.3-0.2c0.2-0.1,0.3-0.2,0.3-0.2s-0.1-0.1-0.2-0.2L141.3,391.8z M141.5,385
      c-0.3,0.2-0.5,0.5-0.5,0.9c0,0.4,0.1,0.7,0.4,1c0.2,0.3,0.6,0.6,1,0.9c0.6-0.3,1-0.5,1.3-0.8c0.3-0.3,0.4-0.6,0.4-1
      c0-0.2,0-0.4-0.1-0.6c-0.1-0.2-0.3-0.4-0.6-0.6c-0.3-0.1-0.6-0.2-0.9-0.2C142.2,384.7,141.9,384.8,141.5,385z"/>
    <path d="M165.9,398.3l-0.2-1.3c-0.6,0.6-1.3,1-2,1.3c-0.7,0.2-1.5,0.4-2.5,0.4c-1.2,0-2.2-0.3-3.1-0.9c-0.8-0.6-1.2-1.5-1.2-2.7
      c0-0.8,0.2-1.4,0.5-1.9c0.3-0.5,0.8-0.9,1.3-1.2s1.1-0.5,1.7-0.6s1.3-0.2,2.2-0.3c1-0.1,1.8-0.3,2.2-0.4c0.5-0.1,0.7-0.4,0.7-0.8
      c0-0.4-0.2-0.6-0.5-0.8c-0.3-0.1-0.7-0.2-1.1-0.2c-0.4,0-0.8,0.1-1.1,0.2s-0.5,0.5-0.6,0.9h-4.6c0-1.3,0.5-2.3,1.6-3
      c1-0.7,2.7-1,5-1c1.4,0,2.5,0.1,3.3,0.4c0.8,0.2,1.4,0.6,1.8,1c0.4,0.4,0.6,0.9,0.8,1.5s0.2,1.3,0.2,2.1v5.6c0,0.4,0,0.7,0.1,0.9
      c0.1,0.2,0.2,0.4,0.5,0.7v0.2H165.9z M164.9,395.3c0.3-0.5,0.5-1.1,0.5-1.9l0-0.2c0-0.1,0-0.1,0-0.2c-0.4,0.2-0.9,0.3-1.7,0.5
      c-0.7,0.2-1.2,0.3-1.5,0.5c-0.3,0.2-0.5,0.5-0.5,1c0,0.3,0.1,0.6,0.4,0.7c0.3,0.2,0.6,0.3,1.1,0.3
      C164,396,164.6,395.7,164.9,395.3z"/>
    <path d="M175.5,386.3h4.3v2.4h0c0.7-1.9,1.9-2.8,3.7-2.8c0.1,0,0.2,0,0.4,0l0.2,0v4.8c-0.1,0-0.2,0-0.3,0
      c-0.3-0.1-0.5-0.1-0.7-0.1c-1,0-1.8,0.3-2.2,0.8c-0.5,0.5-0.7,1.4-0.7,2.7v4.2h-4.8V386.3z"/>
    <path d="M196.7,398.3c-1.1,0.1-2.1,0.1-2.7,0.1c-1,0-1.8-0.1-2.3-0.2s-1-0.4-1.3-0.7s-0.5-0.7-0.6-1.3c-0.1-0.5-0.1-1.3-0.1-2.2
      v-5h-1.7v-2.8h1.8v-3.7h4.7v3.7h2.3v2.8h-2.3v4.4c0,0.6,0.1,1,0.3,1.2s0.6,0.3,1.2,0.3h0.8V398.3z"/>
    <path d="M205.6,394.6c0,0.5,0.2,0.8,0.5,1.1c0.3,0.2,0.7,0.4,1.2,0.4c0.4,0,0.8-0.1,1.1-0.3c0.3-0.2,0.4-0.4,0.4-0.8
      c0-0.3-0.2-0.6-0.6-0.7c-0.4-0.2-1-0.3-1.9-0.5c-0.7-0.1-1.3-0.3-1.9-0.4s-1-0.3-1.5-0.6s-0.8-0.6-1.1-1.1c-0.3-0.5-0.4-1-0.4-1.7
      c0-0.7,0.2-1.4,0.5-1.9s0.8-0.9,1.3-1.2s1.2-0.5,1.8-0.7c0.7-0.1,1.3-0.2,2-0.2c0.7,0,1.4,0.1,2.1,0.2c0.7,0.1,1.3,0.3,1.8,0.6
      c0.6,0.3,1,0.7,1.4,1.2c0.4,0.5,0.6,1.1,0.6,1.9h-4.3c0-0.4-0.2-0.7-0.5-0.9c-0.2-0.2-0.6-0.3-1-0.3c-0.4,0-0.8,0.1-1,0.2
      c-0.2,0.1-0.4,0.4-0.4,0.6s0.2,0.5,0.6,0.7c0.4,0.1,1,0.3,1.9,0.5c0.8,0.2,1.4,0.3,2,0.5s1,0.4,1.5,0.6c0.5,0.3,0.9,0.6,1.2,1.1
      s0.5,1,0.5,1.7c0,1.3-0.5,2.3-1.6,3.1c-1.1,0.8-2.7,1.1-4.9,1.1c-0.8,0-1.5-0.1-2.1-0.2s-1.3-0.4-1.9-0.7c-0.6-0.3-1-0.7-1.4-1.3
      c-0.4-0.5-0.6-1.2-0.6-2H205.6z"/>
    <path d="M218.6,398.3v-16.6h12.9v3.9h-7.5v3h5.9v3.9h-5.9v5.8H218.6z"/>
    <path d="M239.6,393.4c0,0.7,0.2,1.3,0.7,1.7c0.5,0.4,1,0.7,1.7,0.7c0.4,0,0.8-0.1,1.1-0.3c0.3-0.2,0.6-0.4,0.7-0.8h4.6
      c-0.2,0.7-0.5,1.3-1,1.9c-0.4,0.5-1,0.9-1.6,1.2s-1.3,0.5-2,0.7c-0.7,0.1-1.4,0.2-2.2,0.2c-1,0-1.9-0.1-2.7-0.4
      c-0.8-0.3-1.6-0.7-2.2-1.2c-0.6-0.5-1.1-1.2-1.4-2c-0.3-0.8-0.5-1.7-0.5-2.6c0-1,0.2-1.9,0.5-2.7s0.8-1.5,1.4-2.1s1.3-1,2.2-1.3
      c0.8-0.3,1.7-0.4,2.7-0.4c1.1,0,2.1,0.2,2.9,0.5c0.9,0.4,1.6,0.9,2.2,1.5s1.1,1.4,1.4,2.4c0.3,0.9,0.5,1.9,0.5,3H239.6z M244,391
      c0-0.6-0.2-1-0.6-1.5c-0.4-0.4-0.9-0.6-1.5-0.6c-0.7,0-1.3,0.2-1.6,0.6c-0.4,0.4-0.6,0.9-0.6,1.5H244z"/>
    <path d="M257.3,394.6c0,0.5,0.2,0.8,0.5,1.1c0.3,0.2,0.7,0.4,1.2,0.4c0.4,0,0.8-0.1,1.1-0.3c0.3-0.2,0.4-0.4,0.4-0.8
      c0-0.3-0.2-0.6-0.6-0.7c-0.4-0.2-1-0.3-1.9-0.5c-0.7-0.1-1.3-0.3-1.9-0.4s-1-0.3-1.5-0.6s-0.8-0.6-1.1-1.1c-0.3-0.5-0.4-1-0.4-1.7
      c0-0.7,0.2-1.4,0.5-1.9s0.8-0.9,1.3-1.2s1.2-0.5,1.8-0.7c0.7-0.1,1.3-0.2,2-0.2c0.7,0,1.4,0.1,2.1,0.2c0.7,0.1,1.3,0.3,1.8,0.6
      c0.6,0.3,1,0.7,1.4,1.2c0.4,0.5,0.6,1.1,0.6,1.9h-4.3c0-0.4-0.2-0.7-0.5-0.9c-0.2-0.2-0.6-0.3-1-0.3c-0.4,0-0.8,0.1-1,0.2
      c-0.2,0.1-0.4,0.4-0.4,0.6s0.2,0.5,0.6,0.7c0.4,0.1,1,0.3,1.9,0.5c0.8,0.2,1.4,0.3,2,0.5s1,0.4,1.5,0.6c0.5,0.3,0.9,0.6,1.2,1.1
      s0.5,1,0.5,1.7c0,1.3-0.5,2.3-1.6,3.1c-1.1,0.8-2.7,1.1-4.9,1.1c-0.8,0-1.5-0.1-2.1-0.2s-1.3-0.4-1.9-0.7c-0.6-0.3-1-0.7-1.4-1.3
      c-0.4-0.5-0.6-1.2-0.6-2H257.3z"/>
    <path d="M277.6,398.3c-1.1,0.1-2.1,0.1-2.7,0.1c-1,0-1.8-0.1-2.3-0.2s-1-0.4-1.3-0.7s-0.5-0.7-0.6-1.3c-0.1-0.5-0.1-1.3-0.1-2.2
      v-5h-1.7v-2.8h1.8v-3.7h4.7v3.7h2.3v2.8h-2.3v4.4c0,0.6,0.1,1,0.3,1.2s0.6,0.3,1.2,0.3h0.8V398.3z"/>
    <path d="M282.8,398.3v-12.1h4.8v12.1H282.8z"/>
    <path d="M291.8,386.3h4.8l2.1,7.6l2.1-7.6h4.6l-4.1,12.1H296L291.8,386.3z"/>
    <path d="M317.4,398.3l-0.2-1.3c-0.6,0.6-1.3,1-2,1.3c-0.7,0.2-1.5,0.4-2.5,0.4c-1.2,0-2.2-0.3-3.1-0.9c-0.8-0.6-1.2-1.5-1.2-2.7
      c0-0.8,0.2-1.4,0.5-1.9c0.3-0.5,0.8-0.9,1.3-1.2s1.1-0.5,1.7-0.6s1.3-0.2,2.2-0.3c1-0.1,1.8-0.3,2.2-0.4c0.5-0.1,0.7-0.4,0.7-0.8
      c0-0.4-0.2-0.6-0.5-0.8c-0.3-0.1-0.7-0.2-1.1-0.2c-0.4,0-0.8,0.1-1.1,0.2s-0.5,0.5-0.6,0.9h-4.6c0-1.3,0.5-2.3,1.6-3
      c1-0.7,2.7-1,5-1c1.4,0,2.5,0.1,3.3,0.4c0.8,0.2,1.4,0.6,1.8,1c0.4,0.4,0.6,0.9,0.8,1.5s0.2,1.3,0.2,2.1v5.6c0,0.4,0,0.7,0.1,0.9
      c0.1,0.2,0.2,0.4,0.5,0.7v0.2H317.4z M316.5,395.3c0.3-0.5,0.5-1.1,0.5-1.9l0-0.2c0-0.1,0-0.1,0-0.2c-0.4,0.2-0.9,0.3-1.7,0.5
      c-0.7,0.2-1.2,0.3-1.5,0.5c-0.3,0.2-0.5,0.5-0.5,1c0,0.3,0.1,0.6,0.4,0.7c0.3,0.2,0.6,0.3,1.1,0.3
      C315.6,396,316.1,395.7,316.5,395.3z"/>
    <path d="M327.1,398.3v-16.6h4.8v16.6H327.1z"/>
  </g>
</symbol>
</defs>
</svg>