<svg style="display:none">
<defs>
<symbol id="dome" viewBox="0 0 90 200">
    <path d="m55.12,183.96c-.41-9.26,2.79-15.82,3.87-18.48,1.07-2.65.67-4.27,0-4.8-.67-.53.54-3.59.54-3.59,0,0,3.5.93,5.89.12,2.39-.8,6.29-4.3,6.29-12.32s-1.17-12.67-4.55-12.55c-3.36.14-3.5.37-3.5.37v-1.85s2.83-1.72,1.88-4.42c-.94-2.69-4.38-6.18-3.46-14.46.91-8.27,8.01-14.53,14.03-16.69,6.03-2.15,9.99-1.62,9.99-1.62v-33.85s-6.14,0-6.14,0l-.23,1.86h-3.6s-2.08-.52-1.8-2.93c.3-2.42,2.51-2.96,2.51-2.96h3.6s-.25,2.06-.25,2.06h5.9s0-6.58,0-6.58h-4.95s-.24,1.94-.24,1.94h-3.59s-2.09-.52-1.8-2.95c.28-2.4,2.51-2.94,2.51-2.94h3.6s-.2,1.7-.2,1.7h4.68s0-2.55,0-2.55c0,0-.64-1.85-1.43-2.8-.81-.94-1.35-2.83-.28-2.96,1.07-.13,2.01-.31,2.42-1.35.4-1.06,1.11-1.18,1.36-2.4.23-1.19.36-1.33,1.17-1.47.81-.13,1.08,0,1.08,0,0,0-2.94-6.15-3.2-11.24-.27-5.08-.4-6.53-.4-6.53h-1.29v-4.88s-1.53,0-1.53,0v-2.22c1.97-.85,3.34-2.8,3.34-5.1,0-3.06-2.48-5.53-5.54-5.53s-5.54,2.47-5.54,5.53c0,2.36,1.45,4.35,3.5,5.17l.11,2.15h-1.32s0,4.88,0,4.88h-1.31s-.14,10-3.06,18.26c-3.74,10.64-10.02,12.34-10.02,15.77,0,2.86,2.2,5.05,2.2,5.05,0,0-3.51.65-3.51,2.92s2.69,2.04,2.69,3.35v11.16h-1.79s0,4.24,0,4.24c0,0-20.66,11.74-32.77,28.93-22.49,31.94-20.54,51.83-20.54,51.83H1.47s0,2.59,0,2.59c0,0,3.34.15,4.78,3.43,1.53,3.52,1.6,5.89.61,14.5-.85,7.4-2.61,11.42-2.61,11.42H0s0,8.79,0,8.79h65.2s-9.68-6.79-10.08-16.04"/>
</symbol>
<symbol id="logo-small" viewBox="0 0 426 110">
  <path fill="var(--logo-dome)" d="M30.01,100.18c-.22-5.04,1.52-8.62,2.11-10.06.58-1.45.36-2.33,0-2.62s.29-1.96.29-1.96c0,0,1.91.5,3.21.06,1.3-.43,3.42-2.34,3.42-6.7s-.64-6.9-2.48-6.84c-1.83.08-1.91.2-1.91.2v-1.01s1.53-.93,1.02-2.41c-.51-1.46-2.38-3.37-1.89-7.88.49-4.5,4.36-7.91,7.64-9.08,3.28-1.17,5.44-.88,5.44-.88v-18.43h-3.34l-.12,1.01h-1.96s-1.14-.28-.98-1.6,1.37-1.61,1.37-1.61h1.96l-.13,1.12h3.21v-3.58h-2.69l-.13,1.06h-1.96s-1.14-.28-.98-1.61c.16-1.31,1.37-1.61,1.37-1.61h1.96l-.11.93h2.55v-1.38s-.34-1.01-.78-1.53c-.44-.51-.74-1.54-.15-1.61.58-.07,1.09-.17,1.31-.73.22-.57.6-.64.74-1.31.12-.65.19-.72.64-.8.44-.07.59,0,.59,0,0,0-1.6-3.34-1.75-6.12-.15-2.77-.22-3.55-.22-3.55h-.71v-2.66h-.83v-1.21c1.07-.46,1.82-1.53,1.82-2.78,0-1.67-1.35-3.01-3.02-3.01s-3.02,1.35-3.02,3.01c0,1.28.79,2.37,1.91,2.81l.06,1.17h-.72v2.66h-.71s-.08,5.44-1.67,9.94c-2.04,5.79-5.46,6.72-5.46,8.59,0,1.56,1.2,2.75,1.2,2.75,0,0-1.91.35-1.91,1.6s1.46,1.11,1.46,1.83v6.08h-.97v2.31s-11.25,6.39-17.84,15.75c-12.25,17.39-11.18,28.22-11.18,28.22H.8v1.41s1.82.08,2.6,1.87c.83,1.91.87,3.21.34,7.89-.47,4.03-1.42,6.22-1.42,6.22H0v4.79h35.5s-5.27-3.7-5.49-8.74"/>
  <g fill="var(--logo-amalfi)">
    <path class="cls-1" d="M77.39,84.5v-1.97h5.84l-5.32-14.09h-11.93l-5.32,14.09h5.84v1.97h-13.03v-1.97h5.03l14.85-39.38h2.15l14.96,39.38h5.08v1.97h-18.14ZM77.12,66.47l-5.18-13.71-5.18,13.71h10.36Z"/>
    <polygon class="cls-1" points="99.98 49.47 99.98 82.53 106.09 82.53 106.09 84.5 91.85 84.5 91.85 82.53 97.96 82.53 97.96 46.11 91.85 46.11 91.85 44.14 105.26 44.14 115.06 72.64 124.86 44.14 138.04 44.14 138.04 46.11 131.94 46.11 131.94 82.53 138.04 82.53 138.04 84.5 119.13 84.5 119.13 82.53 125.24 82.53 125.24 49.1 112.58 85.79 99.98 49.47"/>
    <path class="cls-1" d="M158.29,84.5v-1.97h5.84l-5.32-14.09h-11.93l-5.32,14.09h5.84v1.97h-13.03v-1.97h5.03l14.85-39.38h2.15l14.96,39.38h5.08v1.97h-18.14ZM158.02,66.47l-5.18-13.71-5.18,13.71h10.36Z"/>
    <path class="cls-1" d="M172.98,84.5v-1.97h6.1v-36.42h-6.1v-1.97h18.91v1.97h-6.11v36.42h9.19c3.08,0,5.42-.93,7.15-2.83,1.76-1.93,3.06-4.62,3.88-7.99l.11-.46h1.68v13.24h-34.81Z"/>
    <path class="cls-1" d="M206.8,84.5v-1.97h6.1v-36.42h-6.1v-1.97h32.66v10.72h-1.64l-.14-.41c-.46-1.39-.97-2.63-1.51-3.69-.52-1.02-1.14-1.89-1.86-2.59-.7-.69-1.55-1.2-2.53-1.54-1-.34-2.23-.52-3.66-.52h-8.53v16.62h2.98c1.15,0,2.14-.1,2.93-.31.75-.2,1.37-.55,1.9-1.08.54-.54,1.02-1.31,1.41-2.28.41-1.01.82-2.34,1.21-3.96l.11-.46h1.67v18.3h-1.68l-.11-.46c-.26-1.06-.52-2.08-.79-3.06-.26-.93-.62-1.76-1.08-2.48-.44-.69-1.02-1.23-1.77-1.64-.73-.41-1.72-.61-2.93-.61h-3.86v17.83h6.11v1.97h-18.91Z"/>
    <polygon class="cls-1" points="240.9 84.5 240.9 82.53 247.01 82.53 247.01 46.11 240.9 46.11 240.9 44.14 259.81 44.14 259.81 46.11 253.71 46.11 253.71 82.53 259.81 82.53 259.81 84.5 240.9 84.5"/>
  </g>
  <g fill="var(--logo-coast)">
    <path class="cls-1" d="M277.36,85.32c-2.37,0-4.71-.44-6.95-1.3-2.25-.87-4.4-2.3-6.39-4.26-1.84-1.84-3.39-4.04-4.63-6.54-1.25-2.53-1.88-5.49-1.88-8.79,0-2.81.51-5.53,1.53-8.09,1.01-2.55,2.44-4.83,4.24-6.79,1.81-1.96,3.96-3.53,6.4-4.67,2.45-1.15,5.17-1.73,8.07-1.73,1.18,0,2.25.12,3.17.35.9.22,1.72.48,2.44.77.69.27,1.33.52,1.92.74.52.19,1.02.29,1.49.29.78,0,1.09-.15,1.2-.23.28-.21.54-.46.77-.72l.18-.21h1.7v12.2h-1.68l-.11-.46c-.32-1.36-.74-2.72-1.24-4.05-.49-1.28-1.17-2.43-2.03-3.42-.86-.97-1.96-1.78-3.29-2.38-1.33-.6-3.01-.91-5-.91-1.85,0-3.46.29-4.77.86-1.31.57-2.43,1.34-3.32,2.28-.9.95-1.63,2.08-2.17,3.34-.55,1.3-.97,2.68-1.25,4.12-.29,1.45-.48,2.94-.57,4.43-.09,1.5-.14,2.94-.14,4.28,0,3.79.31,6.96.92,9.43.6,2.44,1.44,4.38,2.51,5.77,1.04,1.37,2.31,2.34,3.78,2.88,1.5.56,3.19.84,5.02.84,2.36,0,4.27-.33,5.69-.99,1.41-.65,2.56-1.51,3.42-2.56.86-1.05,1.53-2.27,1.99-3.61.47-1.39.89-2.8,1.25-4.17l.12-.45h1.67v12.91h-1.7l-.18-.2c-.23-.26-.49-.5-.78-.71-.15-.11-.49-.24-1.19-.24-.49,0-1.03.09-1.61.27l-2.2.69c-.83.26-1.79.5-2.84.7-1.06.21-2.25.31-3.53.31Z"/>
    <path class="cls-1" d="M311.41,85.32c-2.83,0-5.49-.59-7.91-1.76-2.4-1.16-4.51-2.74-6.26-4.67-1.75-1.93-3.13-4.2-4.1-6.73-.98-2.53-1.47-5.18-1.47-7.89,0-3.01.6-5.83,1.79-8.39,1.18-2.54,2.72-4.79,4.57-6.66,1.86-1.88,3.98-3.37,6.31-4.44,2.34-1.08,4.72-1.62,7.07-1.62,2.5,0,4.96.55,7.32,1.62,2.35,1.07,4.47,2.57,6.31,4.44,1.84,1.88,3.33,4.12,4.44,6.67,1.11,2.56,1.67,5.38,1.67,8.38,0,2.63-.51,5.25-1.53,7.76-1.01,2.51-2.42,4.77-4.18,6.72-1.77,1.95-3.87,3.55-6.25,4.75-2.4,1.21-5.02,1.82-7.78,1.82ZM311.41,45.12c-2.54,0-4.63.52-6.19,1.55-1.57,1.04-2.82,2.45-3.7,4.2-.9,1.79-1.52,3.85-1.84,6.14-.32,2.33-.49,4.77-.49,7.26,0,3.25.22,6.12.65,8.53.42,2.37,1.14,4.37,2.12,5.95.96,1.55,2.21,2.71,3.72,3.46,1.52.76,3.45,1.15,5.73,1.15s4.16-.39,5.7-1.15c1.52-.75,2.78-1.92,3.74-3.46.98-1.58,1.69-3.58,2.12-5.95.43-2.41.65-5.28.65-8.53,0-2.49-.17-4.93-.49-7.26-.32-2.29-.94-4.35-1.84-6.14-.88-1.75-2.13-3.16-3.7-4.2-1.56-1.03-3.64-1.55-6.19-1.55Z"/>
    <path class="cls-1" d="M346.56,84.5v-1.97h5.84l-5.32-14.09h-11.93l-5.32,14.09h5.84v1.97h-13.02v-1.97h5.02l14.85-39.38h2.15l14.96,39.38h5.08v1.97h-18.14ZM346.3,66.47l-5.18-13.71-5.18,13.71h10.36Z"/>
    <path class="cls-1" d="M378.39,85.32c-.78,0-1.46,0-2.05-.03-.61-.02-1.18-.07-1.72-.14-.52-.08-1.04-.16-1.56-.25-.54-.1-1.14-.24-1.77-.43-.74-.22-1.54-.48-2.39-.78-.78-.27-1.45-.41-2-.41s-.68.13-.68.14c-.15.17-.29.4-.41.7l-.15.38h-1.83v-13.02h1.7l.1.48c.39,1.92.9,3.56,1.52,4.87.61,1.3,1.3,2.38,2.03,3.22.72.83,1.48,1.47,2.26,1.91.79.45,1.61.78,2.41.99.82.21,1.61.33,2.35.37.78.04,1.51.06,2.2.06,1.84,0,3.37-.28,4.53-.82,1.16-.54,2.09-1.24,2.76-2.06.68-.83,1.16-1.74,1.43-2.7.28-.99.42-1.91.42-2.73,0-1.18-.22-2.2-.65-3.02-.44-.85-1.01-1.57-1.68-2.16-.69-.6-1.44-1.1-2.25-1.48-.83-.39-1.62-.69-2.36-.9l-6.33-1.93c-3.05-.94-5.4-2.21-6.98-3.78-1.63-1.61-2.46-3.79-2.46-6.48,0-1.72.31-3.35.93-4.82.61-1.48,1.49-2.78,2.61-3.86,1.12-1.08,2.47-1.93,4.02-2.55,1.55-.61,3.26-.92,5.09-.92,1.33,0,2.46.12,3.37.35.89.23,1.67.49,2.32.77l1.68.74c.42.18.84.28,1.27.28.47,0,.6-.07.6-.07,0,0,.16-.13.53-.78l.17-.3h1.72v11.16h-1.77l-.08-.5c-.21-1.26-.58-2.5-1.09-3.68-.5-1.16-1.16-2.2-1.96-3.08-.79-.87-1.75-1.58-2.87-2.12-1.1-.53-2.42-.79-3.89-.79-.83,0-1.77.12-2.78.34-.99.22-1.92.61-2.78,1.16-.84.54-1.54,1.25-2.1,2.13-.54.85-.81,1.97-.81,3.31,0,1.06.21,1.97.63,2.7.43.75,1,1.4,1.68,1.91.71.53,1.51.99,2.4,1.35.92.38,1.86.71,2.78,1l6.66,2.09c.7.22,1.59.52,2.66.88,1.12.38,2.21.97,3.26,1.73,1.07.78,2,1.82,2.75,3.09.77,1.3,1.16,2.96,1.16,4.93,0,1.79-.34,3.52-1.01,5.15-.67,1.63-1.65,3.08-2.91,4.32-1.26,1.24-2.8,2.25-4.59,2.99-1.79.74-3.83,1.12-6.06,1.12Z"/>
    <path class="cls-1" d="M399.19,84.5v-1.97h6.1v-36.42h-2.59c-.7,0-1.51.06-2.39.19-.83.12-1.68.45-2.54.99-.86.54-1.71,1.42-2.52,2.61-.82,1.2-1.54,2.91-2.15,5.08l-.12.44h-1.66v-11.27h34.64v11.27h-1.66l-.12-.44c-.6-2.16-1.33-3.87-2.15-5.08-.81-1.19-1.66-2.07-2.52-2.61-.86-.54-1.71-.87-2.54-.99-.89-.12-1.69-.19-2.39-.19h-2.59v36.42h6.11v1.97h-18.91Z"/>
  </g>
  <g fill="var(--logo-festival)">
    <path class="cls-1" d="M54.68,94.76h5.16v2.11c.41-.63,1.03-1.21,1.85-1.73.82-.52,1.7-.78,2.63-.78,1.21,0,2.19.23,2.94.69.76.46,1.31,1.09,1.67,1.9,1.24-1.73,2.87-2.59,4.89-2.59s3.38.52,4.2,1.55c.82,1.04,1.23,2.58,1.23,4.63v8.37h-5.62v-7.21c0-1.06-.13-1.81-.4-2.25-.27-.44-.77-.66-1.49-.66-.76,0-1.27.27-1.55.82-.28.55-.42,1.32-.42,2.31v6.99h-5.62v-7.21c0-1.06-.13-1.81-.4-2.25-.27-.44-.77-.66-1.49-.66-.76,0-1.27.27-1.55.82-.28.55-.42,1.32-.42,2.31v6.99h-5.62v-14.15Z"/>
    <path class="cls-1" d="M101.75,108.91h-5.21v-2.08c-.68.94-1.4,1.58-2.16,1.94-.76.36-1.74.54-2.94.54-1.58,0-2.83-.49-3.73-1.48-.9-.99-1.35-2.47-1.35-4.46v-8.61h5.62v7.64c0,.94.16,1.6.49,1.98.32.39.84.58,1.54.58.77,0,1.32-.28,1.65-.84.32-.56.49-1.41.49-2.57v-6.8h5.62v14.15Z"/>
    <path class="cls-1" d="M113.8,104.51c0,.56.2.99.59,1.3.38.29.84.43,1.38.43.5,0,.93-.1,1.27-.3.34-.2.51-.52.51-.97,0-.4-.23-.69-.7-.88-.47-.19-1.21-.39-2.24-.61-.85-.16-1.57-.32-2.17-.49-.6-.16-1.17-.4-1.71-.72-.54-.31-.98-.74-1.32-1.27-.34-.53-.51-1.19-.51-1.98,0-.86.2-1.6.59-2.21.4-.61.92-1.1,1.58-1.46.66-.36,1.38-.62,2.16-.77.78-.15,1.57-.23,2.36-.23.86,0,1.68.06,2.46.19.77.13,1.49.35,2.16.67.67.32,1.21.78,1.65,1.36.43.59.68,1.33.76,2.23h-5.1c-.05-.43-.23-.77-.54-1.03-.29-.23-.67-.35-1.13-.35-.5,0-.9.08-1.17.24-.28.16-.42.41-.42.76s.23.6.68.77c.45.17,1.19.37,2.21.58.92.2,1.68.39,2.29.57.61.18,1.21.43,1.8.76.58.32,1.06.76,1.42,1.3.36.54.54,1.2.54,1.97,0,1.53-.64,2.74-1.92,3.62-1.28.88-3.18,1.32-5.7,1.32-.88,0-1.72-.08-2.51-.23-.79-.15-1.53-.41-2.2-.78-.67-.37-1.22-.87-1.65-1.5-.42-.63-.67-1.39-.74-2.29h5.35Z"/>
    <path class="cls-1" d="M130.07,108.91v-14.15h5.62v14.15h-5.62Z"/>
    <path class="cls-1" d="M152.71,100.16c-.02-.61-.22-1.1-.59-1.46-.34-.38-.83-.57-1.46-.57-.5,0-.92.12-1.24.35-.32.23-.58.54-.76.92-.18.38-.3.78-.36,1.21-.06.43-.09.89-.09,1.38,0,1.1.21,1.96.62,2.59.41.63,1.03.95,1.84.95.68,0,1.2-.19,1.54-.58.34-.39.56-.89.65-1.53h5.67c-.11,1.03-.39,1.92-.85,2.69-.46.77-1.06,1.39-1.8,1.88-.68.45-1.47.78-2.36,1-.89.22-1.84.32-2.85.32-1.15,0-2.22-.16-3.2-.49s-1.84-.8-2.56-1.42-1.3-1.39-1.7-2.31c-.41-.92-.61-1.96-.61-3.13s.2-2.25.59-3.2c.4-.95.95-1.75,1.67-2.4.72-.66,1.58-1.16,2.56-1.5s2.07-.51,3.24-.51c.97,0,1.9.11,2.78.32s1.68.56,2.39,1.03c.71.47,1.3,1.08,1.75,1.82s.73,1.62.82,2.63h-5.7Z"/>
    <path class="cls-1" d="M178.27,107.26c-.68.59-1.62,1.1-2.82,1.53-1.2.42-2.4.63-3.6.63-.92,0-1.79-.11-2.61-.32s-1.55-.55-2.19-1c-.64-.45-1.14-1.02-1.51-1.7-.37-.68-.55-1.48-.55-2.38,0-1.39.36-2.58,1.08-3.58.72-1,1.72-1.82,3-2.47-.54-.58-.95-1.15-1.24-1.73s-.43-1.21-.43-1.92c0-.86.19-1.61.58-2.24.39-.63.9-1.14,1.53-1.53.63-.39,1.34-.67,2.12-.84.78-.17,1.58-.26,2.39-.26.9,0,1.75.12,2.54.36.79.24,1.48.59,2.07,1.04s1.04.99,1.38,1.62.5,1.33.5,2.11c0,1.12-.27,2.08-.81,2.88s-1.32,1.48-2.35,2.04l1.67,1.73c.5-.43.93-.97,1.27-1.62h5.13c-.99,1.89-2.08,3.46-3.27,4.72l4.43,4.56h-6.75l-1.54-1.65ZM172.49,101.18c-.65.34-1.16.69-1.54,1.04-.38.35-.57.78-.57,1.28,0,.58.18,1.02.53,1.32.35.31.81.46,1.36.46.29,0,.65-.07,1.08-.22.43-.14.79-.31,1.08-.49.11-.05.24-.13.4-.24.23-.11.35-.19.35-.24s-.06-.14-.19-.27l-2.51-2.65ZM172.79,93.19c-.36.23-.54.6-.54,1.11,0,.45.14.85.43,1.2.29.35.69.71,1.21,1.07.65-.31,1.15-.62,1.5-.93.35-.32.53-.72.53-1.23,0-.22-.04-.45-.11-.7-.13-.29-.35-.5-.67-.65-.32-.14-.66-.22-1-.22-.54,0-.99.12-1.35.35Z"/>
    <path class="cls-1" d="M202.64,108.91l-.27-1.51c-.76.7-1.55,1.2-2.39,1.49-.84.29-1.81.43-2.93.43-1.44,0-2.64-.36-3.6-1.09-.96-.73-1.44-1.79-1.44-3.17,0-.92.2-1.68.59-2.28.4-.6.91-1.06,1.55-1.38s1.3-.54,1.98-.67c.68-.14,1.53-.27,2.54-.39,1.21-.14,2.07-.3,2.61-.47.53-.17.8-.49.8-.96s-.19-.76-.58-.92c-.39-.16-.81-.24-1.26-.24-.5,0-.95.09-1.32.28-.38.19-.59.55-.65,1.09h-5.4c0-1.55.61-2.73,1.84-3.54,1.22-.81,3.19-1.22,5.89-1.22,1.62,0,2.91.14,3.87.42.96.28,1.67.67,2.13,1.19.46.51.76,1.1.89,1.75.13.66.2,1.49.2,2.5v6.62c0,.45.04.8.12,1.04s.29.5.63.77v.27h-5.81ZM201.49,105.32c.4-.54.61-1.27.61-2.19l-.03-.24v-.24c-.43.2-1.09.4-1.97.59-.81.18-1.4.37-1.75.58-.36.21-.54.58-.54,1.12,0,.36.16.65.47.86.31.22.75.32,1.31.32.86,0,1.5-.27,1.9-.81Z"/>
    <path class="cls-1" d="M215.18,94.76h5.1v2.86h.05c.77-2.18,2.22-3.27,4.35-3.27.11,0,.27.02.49.05l.24.03v5.62c-.07-.02-.2-.04-.38-.05-.34-.07-.6-.11-.78-.11-1.19,0-2.06.32-2.62.95-.56.63-.84,1.69-.84,3.19v4.89h-5.62v-14.15Z"/>
    <path class="cls-1" d="M241.26,108.91c-1.35.07-2.41.11-3.19.11-1.15,0-2.06-.08-2.71-.23-.66-.15-1.16-.41-1.5-.78-.34-.37-.57-.87-.69-1.5s-.18-1.49-.18-2.59v-5.91h-2v-3.24h2.08v-4.4h5.54v4.4h2.7v3.24h-2.7v5.13c0,.68.11,1.15.32,1.39.22.24.69.36,1.43.36h.89v4.02Z"/>
    <path class="cls-1" d="M253.03,104.51c0,.56.2.99.59,1.3.38.29.84.43,1.38.43.5,0,.93-.1,1.27-.3.34-.2.51-.52.51-.97,0-.4-.23-.69-.7-.88-.47-.19-1.21-.39-2.24-.61-.85-.16-1.57-.32-2.17-.49-.6-.16-1.17-.4-1.71-.72-.54-.31-.98-.74-1.32-1.27-.34-.53-.51-1.19-.51-1.98,0-.86.2-1.6.59-2.21.4-.61.92-1.1,1.58-1.46.66-.36,1.38-.62,2.16-.77.78-.15,1.57-.23,2.36-.23.86,0,1.68.06,2.46.19.77.13,1.49.35,2.16.67.67.32,1.21.78,1.65,1.36.43.59.68,1.33.76,2.23h-5.1c-.05-.43-.23-.77-.54-1.03-.29-.23-.67-.35-1.13-.35-.5,0-.9.08-1.17.24-.28.16-.42.41-.42.76s.23.6.68.77c.45.17,1.19.37,2.21.58.92.2,1.68.39,2.29.57.61.18,1.21.43,1.8.76.58.32,1.06.76,1.42,1.3.36.54.54,1.2.54,1.97,0,1.53-.64,2.74-1.92,3.62-1.28.88-3.18,1.32-5.7,1.32-.88,0-1.72-.08-2.51-.23-.79-.15-1.53-.41-2.2-.78-.67-.37-1.22-.87-1.65-1.5-.42-.63-.67-1.39-.74-2.29h5.35Z"/>
    <path class="cls-1" d="M269.58,108.91v-19.44h15.12v4.54h-8.75v3.54h6.97v4.54h-6.97v6.83h-6.37Z"/>
    <path class="cls-1" d="M295.52,103.1c0,.81.27,1.48.82,2,.55.52,1.2.78,1.96.78.47,0,.89-.1,1.26-.31.37-.21.65-.52.85-.93h5.37c-.23.85-.61,1.57-1.13,2.17-.52.6-1.14,1.08-1.86,1.44-.72.36-1.49.63-2.31.8-.82.17-1.66.26-2.52.26-1.13,0-2.19-.16-3.17-.49-.98-.32-1.84-.8-2.56-1.43-.73-.63-1.3-1.4-1.7-2.32-.4-.92-.61-1.95-.61-3.11s.2-2.17.61-3.12c.41-.95.97-1.75,1.7-2.43.73-.68,1.58-1.19,2.55-1.54.97-.35,2.03-.53,3.16-.53,1.28,0,2.43.21,3.46.62,1.03.42,1.9,1.01,2.63,1.78.73.77,1.28,1.7,1.66,2.78s.57,2.27.57,3.56h-10.72ZM300.62,100.24c0-.65-.25-1.22-.74-1.71s-1.08-.74-1.74-.74c-.83,0-1.47.22-1.93.65-.46.43-.69,1.04-.69,1.81h5.1Z"/>
    <path class="cls-1" d="M317.45,104.51c0,.56.2.99.59,1.3.38.29.84.43,1.38.43.5,0,.93-.1,1.27-.3.34-.2.51-.52.51-.97,0-.4-.23-.69-.7-.88-.47-.19-1.21-.39-2.24-.61-.85-.16-1.57-.32-2.17-.49-.6-.16-1.17-.4-1.71-.72-.54-.31-.98-.74-1.32-1.27-.34-.53-.51-1.19-.51-1.98,0-.86.2-1.6.59-2.21.4-.61.92-1.1,1.58-1.46.66-.36,1.38-.62,2.16-.77.78-.15,1.57-.23,2.36-.23.86,0,1.68.06,2.46.19.77.13,1.49.35,2.16.67.67.32,1.21.78,1.65,1.36.43.59.68,1.33.76,2.23h-5.1c-.05-.43-.23-.77-.54-1.03-.29-.23-.67-.35-1.13-.35-.5,0-.9.08-1.17.24-.28.16-.42.41-.42.76s.23.6.68.77c.45.17,1.19.37,2.21.58.92.2,1.68.39,2.29.57.61.18,1.21.43,1.8.76.58.32,1.06.76,1.42,1.3.36.54.54,1.2.54,1.97,0,1.53-.64,2.74-1.92,3.62-1.28.88-3.18,1.32-5.7,1.32-.88,0-1.72-.08-2.51-.23-.79-.15-1.53-.41-2.2-.78-.67-.37-1.22-.87-1.65-1.5-.42-.63-.67-1.39-.74-2.29h5.35Z"/>
    <path class="cls-1" d="M342.61,108.91c-1.35.07-2.41.11-3.19.11-1.15,0-2.06-.08-2.71-.23-.66-.15-1.16-.41-1.5-.78-.34-.37-.57-.87-.69-1.5s-.18-1.49-.18-2.59v-5.91h-2v-3.24h2.08v-4.4h5.54v4.4h2.7v3.24h-2.7v5.13c0,.68.11,1.15.32,1.39.22.24.69.36,1.43.36h.89v4.02Z"/>
    <path class="cls-1" d="M349.96,108.91v-14.15h5.62v14.15h-5.62Z"/>
    <path class="cls-1" d="M361.76,94.76h5.62l2.48,8.94,2.46-8.94h5.4l-4.78,14.15h-6.26l-4.91-14.15Z"/>
    <path class="cls-1" d="M393.14,108.91l-.27-1.51c-.76.7-1.55,1.2-2.39,1.49-.84.29-1.81.43-2.93.43-1.44,0-2.64-.36-3.6-1.09-.96-.73-1.44-1.79-1.44-3.17,0-.92.2-1.68.59-2.28.4-.6.91-1.06,1.55-1.38s1.3-.54,1.98-.67c.68-.14,1.53-.27,2.54-.39,1.21-.14,2.07-.3,2.61-.47.53-.17.8-.49.8-.96s-.19-.76-.58-.92c-.39-.16-.81-.24-1.26-.24-.5,0-.95.09-1.32.28-.38.19-.59.55-.65,1.09h-5.4c0-1.55.61-2.73,1.84-3.54,1.22-.81,3.19-1.22,5.89-1.22,1.62,0,2.91.14,3.87.42.96.28,1.67.67,2.13,1.19.46.51.76,1.1.89,1.75.13.66.2,1.49.2,2.5v6.62c0,.45.04.8.12,1.04s.29.5.63.77v.27h-5.81ZM391.99,105.32c.4-.54.61-1.27.61-2.19l-.03-.24v-.24c-.43.2-1.09.4-1.97.59-.81.18-1.4.37-1.75.58-.36.21-.54.58-.54,1.12,0,.36.16.65.47.86.31.22.75.32,1.31.32.86,0,1.5-.27,1.9-.81Z"/>
    <path class="cls-1" d="M405.8,108.91v-19.44h5.62v19.44h-5.62Z"/>
  </g>
</symbol>
<symbol id="logo-large" viewBox="0 0 413 112">
  <path fill="var(--logo-dome)" d="M30.49,101.77c-.22-5.12,1.54-8.75,2.14-10.22.59-1.47.37-2.37,0-2.66s.3-1.99.3-1.99c0,0,1.94.51,3.26.06,1.32-.44,3.48-2.37,3.48-6.81s-.65-7.01-2.52-6.94c-1.85.08-1.94.21-1.94.21v-1.02s1.56-.95,1.04-2.45c-.52-1.49-2.42-3.42-1.92-8,.5-4.57,4.43-8.04,7.76-9.23,3.33-1.19,5.53-.9,5.53-.9v-18.73h-3.4l-.13,1.03h-1.99s-1.16-.29-.99-1.62,1.39-1.64,1.39-1.64h1.99l-.13,1.14h3.26v-3.64h-2.73l-.13,1.08h-1.99s-1.16-.29-.99-1.63c.16-1.33,1.39-1.63,1.39-1.63h1.99l-.12.94h2.59v-1.41s-.35-1.02-.8-1.55c-.45-.52-.75-1.57-.15-1.64.59-.07,1.11-.17,1.33-.74.22-.58.61-.65.75-1.33.13-.66.2-.73.65-.82.45-.07.6,0,.6,0,0,0-1.62-3.4-1.77-6.22-.15-2.81-.22-3.61-.22-3.61h-.72v-2.71h-.84v-1.23c1.08-.47,1.85-1.55,1.85-2.82,0-1.69-1.37-3.06-3.06-3.06s-3.06,1.37-3.06,3.06c0,1.3.81,2.41,1.94,2.86l.06,1.19h-.73v2.71h-.73s-.08,5.53-1.69,10.1c-2.07,5.89-5.55,6.83-5.55,8.73,0,1.59,1.22,2.8,1.22,2.8,0,0-1.94.36-1.94,1.62s1.49,1.13,1.49,1.85v6.17h-.99v2.35s-11.43,6.5-18.12,16c-12.44,17.67-11.36,28.67-11.36,28.67H.82v1.43s1.85.08,2.64,1.9c.84,1.94.89,3.26.34,8.02-.47,4.09-1.44,6.32-1.44,6.32H0v4.86h36.06s-5.36-3.75-5.57-8.88"/>
  <g fill="var(--logo-amalfi)">
    <path class="cls-1" d="M170.22,83.79h6.12v-37.73h-6.12v-.77h17.76v.77h-6.12v37.73h9.82c3.24,0,5.78-1.01,7.61-3.03,1.84-2.02,3.18-4.78,4.03-8.28h.6v12.07h-33.69v-.76Z"/>
    <path class="cls-1" d="M202.64,83.79h6.11v-37.73h-6.11v-.77h31.55v9.55h-.6c-.48-1.44-1-2.69-1.54-3.76-.56-1.1-1.22-2.03-2-2.76-.77-.77-1.68-1.33-2.75-1.71-1.07-.37-2.36-.55-3.86-.55h-9.16v17.87h3.59c1.21,0,2.24-.11,3.08-.34.84-.21,1.56-.62,2.15-1.21.62-.63,1.14-1.45,1.54-2.49.45-1.06.87-2.42,1.27-4.08h.61v17.15h-.61c-.25-1.06-.53-2.09-.82-3.09-.26-.99-.65-1.87-1.16-2.64-.48-.77-1.14-1.38-1.99-1.82-.81-.48-1.87-.71-3.2-.71h-4.47v19.08h6.13v.76h-17.76v-.76Z"/>
    <path class="cls-1" d="M72.82,51.64l6.06,16.05h-12.13l6.07-16.05ZM74.64,44.3l-14.9,39.49h-4.85v.76h11.86v-.76h-6.12l5.79-15.33h12.8l5.79,15.33h-6.13v.76h16.99v-.76h-4.91l-15.01-39.49h-1.32Z"/>
    <polygon class="cls-1" points="91.88 83.79 98.01 83.79 98.01 46.07 91.88 46.07 91.88 45.29 104.29 45.29 114.5 74.97 114.61 74.97 124.82 45.29 137.01 45.29 137.01 46.07 130.88 46.07 130.88 83.79 137.01 83.79 137.01 84.56 119.24 84.56 119.24 83.79 125.37 83.79 125.37 46.4 125.26 46.4 112.07 84.62 98.95 46.78 98.83 46.78 98.83 83.79 104.96 83.79 104.96 84.56 91.88 84.56 91.88 83.79"/>
    <path class="cls-1" d="M150.94,51.63l-6.07,16.05h12.14l-6.06-16.05ZM133.01,83.79h4.86l14.9-39.49h1.32l15,39.49h4.91v.76h-16.99v-.76h6.13l-5.79-15.33h-12.8l-5.79,15.33h6.12v.76h-11.86v-.76Z"/>
    <polygon class="cls-1" points="235.56 83.79 241.68 83.79 241.68 46.07 235.56 46.07 235.56 45.29 253.32 45.29 253.32 46.07 247.2 46.07 247.2 83.79 253.32 83.79 253.32 84.56 235.56 84.56 235.56 83.79"/>
  </g>
  <g fill="var(--logo-coast)">
    <path class="cls-1" d="M283.05,84.56h-.83c-.26-.29-.55-.55-.88-.76-.33-.26-.84-.39-1.55-.39-.55,0-1.16.11-1.82.33-.63.19-1.36.41-2.21.66-.81.26-1.73.48-2.76.66-1.03.23-2.17.34-3.42.34-2.31,0-4.58-.42-6.78-1.27-2.18-.85-4.23-2.22-6.18-4.14-1.8-1.81-3.3-3.93-4.52-6.4-1.21-2.46-1.82-5.31-1.82-8.55,0-2.76.5-5.38,1.49-7.89.99-2.5,2.37-4.71,4.13-6.62,1.77-1.91,3.84-3.42,6.23-4.52,2.4-1.14,5.01-1.71,7.84-1.71,1.13,0,2.14.11,3.03.33.88.22,1.67.47,2.37.77.7.26,1.34.5,1.93.72.59.22,1.16.33,1.71.33.73,0,1.25-.11,1.54-.33.33-.26.63-.54.88-.83h.83v11.03h-.6c-.33-1.4-.76-2.77-1.27-4.14-.51-1.36-1.23-2.56-2.15-3.59-.92-1.06-2.09-1.91-3.53-2.54-1.4-.66-3.14-.99-5.24-.99-1.95,0-3.63.31-5.02.94-1.4.58-2.58,1.4-3.53,2.43-.96.99-1.73,2.17-2.32,3.53-.55,1.32-.98,2.73-1.27,4.24-.29,1.48-.49,2.98-.6,4.53-.08,1.5-.12,2.94-.12,4.3,0,3.86.32,7.06.94,9.59.63,2.54,1.48,4.55,2.59,6.01,1.14,1.47,2.51,2.5,4.08,3.09,1.58.59,3.33.89,5.24.89,2.47,0,4.45-.35,5.96-1.05,1.51-.7,2.72-1.6,3.64-2.7.92-1.14,1.62-2.4,2.09-3.81.47-1.43.9-2.85,1.27-4.24h.61v11.74Z"/>
    <path class="cls-1" d="M288.72,64.87c0,3.31.22,6.2.66,8.66.44,2.46,1.18,4.52,2.21,6.17,1.03,1.65,2.35,2.89,3.97,3.7,1.62.81,3.63,1.21,6.01,1.21s4.35-.41,5.96-1.21c1.65-.81,3-2.05,4.03-3.7,1.03-1.65,1.76-3.71,2.21-6.17.45-2.46.66-5.36.66-8.66,0-2.54-.16-4.98-.5-7.34-.33-2.39-.97-4.51-1.92-6.34-.92-1.87-2.22-3.37-3.92-4.47-1.65-1.1-3.83-1.65-6.51-1.65s-4.87.55-6.56,1.65c-1.66,1.1-2.96,2.6-3.93,4.47-.92,1.83-1.54,3.95-1.87,6.34-.33,2.35-.5,4.8-.5,7.34M282.38,64.87c0-2.95.56-5.67,1.7-8.17,1.18-2.5,2.67-4.66,4.48-6.5,1.83-1.84,3.89-3.28,6.18-4.31,2.28-1.07,4.56-1.59,6.84-1.59,2.43,0,4.78.53,7.06,1.59,2.32,1.03,4.38,2.47,6.18,4.31,1.8,1.83,3.24,4,4.31,6.5,1.1,2.5,1.65,5.22,1.65,8.17,0,2.57-.5,5.09-1.49,7.55-.99,2.48-2.36,4.66-4.08,6.57-1.74,1.91-3.77,3.46-6.12,4.64-2.32,1.17-4.82,1.76-7.51,1.76s-5.32-.57-7.67-1.7c-2.35-1.15-4.4-2.65-6.12-4.52-1.69-1.92-3.01-4.11-3.97-6.57-.96-2.51-1.43-5.07-1.43-7.72"/>
    <path class="cls-1" d="M353.47,72.71h.61c.4,1.98.91,3.66,1.54,5.02.66,1.36,1.38,2.48,2.14,3.37.77.88,1.59,1.55,2.44,2.04.84.48,1.69.83,2.53,1.05.88.22,1.71.35,2.48.38.81.04,1.56.07,2.26.07,1.94,0,3.55-.3,4.8-.88,1.25-.59,2.24-1.32,2.98-2.2.74-.92,1.26-1.9,1.54-2.93.3-1.06.44-2.04.44-2.93,0-1.29-.24-2.39-.72-3.31-.48-.92-1.09-1.69-1.82-2.31-.74-.67-1.54-1.19-2.42-1.6-.84-.4-1.66-.72-2.43-.94l-6.35-1.93c-2.98-.91-5.24-2.13-6.78-3.64-1.51-1.51-2.26-3.53-2.26-6.06,0-1.66.3-3.18.88-4.58.59-1.43,1.41-2.67,2.48-3.7,1.07-1.03,2.34-1.84,3.82-2.43,1.5-.59,3.14-.88,4.9-.88,1.29,0,2.36.1,3.2.33.88.22,1.64.47,2.27.77.62.26,1.17.5,1.65.72.51.22,1.02.33,1.54.33.48,0,.79-.05.94-.17.18-.15.42-.47.71-.99h.78v9.98h-.67c-.22-1.32-.6-2.6-1.16-3.81-.51-1.25-1.2-2.34-2.04-3.26-.85-.95-1.87-1.71-3.09-2.26-1.17-.59-2.56-.88-4.14-.88-.88,0-1.85.13-2.92.38-1.07.22-2.06.63-2.98,1.21-.92.59-1.69,1.36-2.31,2.32-.59.96-.88,2.17-.88,3.65,0,1.17.24,2.18.72,3.03.48.81,1.09,1.51,1.83,2.1.76.55,1.61,1.03,2.53,1.43.96.37,1.91.7,2.87.99l6.67,2.1c.7.22,1.59.52,2.65.89,1.07.36,2.09.92,3.09,1.65,1.03.74,1.89,1.7,2.59,2.92.73,1.21,1.1,2.76,1.1,4.63,0,1.74-.33,3.39-.99,4.97-.63,1.54-1.55,2.92-2.76,4.13-1.22,1.17-2.69,2.14-4.42,2.87-1.73.7-3.68,1.05-5.84,1.05-.78,0-1.45-.02-2.05-.05-.58,0-1.14-.04-1.65-.11-.52-.07-1.03-.17-1.54-.28-.52-.07-1.09-.2-1.71-.39-.73-.21-1.52-.47-2.37-.76-.84-.3-1.58-.44-2.2-.44-.55,0-.94.11-1.16.34-.18.22-.34.51-.49.87h-.83v-11.85Z"/>
    <path class="cls-1" d="M387.2,83.79h6.12v-37.73h-3.2c-.74,0-1.56.07-2.48.22-.92.11-1.86.46-2.82,1.05-.91.58-1.82,1.52-2.69,2.81-.85,1.25-1.58,3-2.21,5.24h-.6v-10.09h33.53v10.09h-.6c-.63-2.24-1.38-3.99-2.26-5.24-.85-1.29-1.75-2.23-2.7-2.81-.92-.59-1.84-.94-2.75-1.05-.93-.15-1.75-.22-2.48-.22h-3.2v37.73h6.12v.76h-17.75v-.76Z"/>
    <path class="cls-1" d="M330.6,51.63l-6.06,16.05h12.13l-6.07-16.05ZM312.68,83.79h4.85l14.89-39.49h1.33l15,39.49h4.92v.76h-16.99v-.76h6.12l-5.8-15.33h-12.79l-5.8,15.33h6.12v.76h-11.86v-.76Z"/>
  </g>
  <g fill="var(--logo-festival)">
    <path class="cls-1" d="M56.07,97.01h4.97v2.03c.4-.61.99-1.16,1.78-1.66.79-.5,1.63-.75,2.54-.75,1.16,0,2.11.22,2.83.66.73.44,1.27,1.05,1.61,1.83,1.2-1.66,2.76-2.5,4.71-2.5s3.25.5,4.04,1.5c.79,1,1.18,2.48,1.18,4.46v8.06h-5.41v-6.94c0-1.02-.13-1.75-.39-2.17-.26-.42-.74-.64-1.43-.64-.73,0-1.23.26-1.5.79-.27.53-.4,1.27-.4,2.22v6.73h-5.41v-6.94c0-1.02-.13-1.75-.39-2.17-.26-.42-.74-.64-1.43-.64-.73,0-1.23.26-1.5.79-.27.53-.4,1.27-.4,2.22v6.73h-5.41v-13.62Z"/>
    <path class="cls-1" d="M101.35,110.63h-5.02v-2c-.66.9-1.35,1.53-2.08,1.87-.73.35-1.67.52-2.83.52-1.53,0-2.72-.48-3.59-1.43s-1.3-2.38-1.3-4.29v-8.29h5.41v7.36c0,.9.16,1.54.47,1.91.31.37.81.56,1.48.56.75,0,1.27-.27,1.59-.81.31-.54.47-1.36.47-2.47v-6.55h5.41v13.62Z"/>
    <path class="cls-1" d="M112.91,106.39c0,.54.19.95.57,1.25.36.28.81.42,1.33.42.49,0,.89-.09,1.22-.29.33-.19.49-.5.49-.94,0-.38-.23-.66-.68-.85-.45-.18-1.17-.38-2.16-.58-.81-.16-1.51-.31-2.09-.47s-1.13-.39-1.65-.69c-.52-.3-.94-.71-1.27-1.22-.33-.51-.49-1.15-.49-1.91,0-.83.19-1.54.57-2.13.38-.59.89-1.06,1.52-1.4.63-.35,1.33-.59,2.08-.74.75-.15,1.51-.22,2.28-.22.83,0,1.62.06,2.37.18s1.44.34,2.08.65c.64.31,1.17.75,1.59,1.31s.66,1.28.73,2.14h-4.91c-.05-.42-.23-.75-.52-.99-.28-.23-.64-.34-1.09-.34-.49,0-.86.08-1.13.23-.27.16-.4.4-.4.73s.22.58.65.74c.43.17,1.14.35,2.13.56.88.19,1.62.37,2.21.55.59.17,1.17.42,1.73.73.56.31,1.02.73,1.36,1.25.35.52.52,1.15.52,1.9,0,1.47-.62,2.63-1.85,3.48-1.23.85-3.06,1.27-5.49,1.27-.85,0-1.66-.07-2.42-.22-.76-.15-1.47-.4-2.12-.75-.65-.36-1.18-.84-1.59-1.44-.41-.61-.65-1.34-.72-2.21h5.15Z"/>
    <path class="cls-1" d="M128.53,110.63v-13.62h5.41v13.62h-5.41Z"/>
    <path class="cls-1" d="M150.28,102.21c-.02-.59-.21-1.06-.57-1.4-.33-.36-.8-.55-1.4-.55-.49,0-.88.11-1.2.34s-.56.52-.73.88c-.17.36-.29.75-.35,1.17-.06.42-.09.86-.09,1.33,0,1.06.2,1.89.6,2.5.4.61.99.91,1.77.91.66,0,1.15-.19,1.48-.56.33-.37.54-.86.62-1.47h5.46c-.1.99-.38,1.85-.82,2.59-.44.74-1.02,1.34-1.73,1.81-.66.43-1.42.75-2.27.96s-1.77.31-2.74.31c-1.11,0-2.14-.16-3.08-.47-.94-.31-1.77-.77-2.47-1.37-.7-.6-1.25-1.34-1.64-2.22s-.58-1.89-.58-3.02.19-2.17.57-3.08c.38-.91.92-1.68,1.61-2.31.69-.63,1.52-1.11,2.47-1.44.95-.33,1.99-.49,3.12-.49.94,0,1.83.1,2.68.31.85.21,1.62.54,2.3.99.68.45,1.25,1.04,1.69,1.75.44.72.71,1.56.79,2.54h-5.49Z"/>
    <path class="cls-1" d="M174.85,109.05c-.66.57-1.56,1.06-2.72,1.47-1.15.41-2.31.61-3.47.61-.88,0-1.72-.1-2.51-.31-.79-.21-1.49-.53-2.11-.96-.62-.43-1.1-.98-1.46-1.64-.36-.66-.53-1.42-.53-2.29,0-1.33.35-2.48,1.04-3.45.69-.96,1.66-1.75,2.89-2.38-.52-.55-.92-1.11-1.2-1.66s-.42-1.17-.42-1.85c0-.83.19-1.55.56-2.16.37-.61.86-1.1,1.47-1.47.61-.37,1.29-.64,2.04-.81.75-.16,1.52-.25,2.3-.25.87,0,1.68.12,2.44.35s1.43.57,1.99,1c.56.43,1,.95,1.33,1.56.32.61.48,1.28.48,2.03,0,1.08-.26,2-.78,2.77-.52.77-1.27,1.43-2.26,1.96l1.61,1.66c.48-.42.89-.94,1.22-1.56h4.94c-.95,1.82-2,3.34-3.15,4.55l4.26,4.39h-6.5l-1.48-1.59ZM169.29,103.2c-.62.33-1.12.66-1.48,1-.36.34-.55.75-.55,1.24,0,.55.17.98.51,1.27s.78.44,1.31.44c.28,0,.62-.07,1.04-.21s.76-.29,1.04-.47c.1-.05.23-.13.39-.23.23-.1.34-.18.34-.23s-.06-.14-.18-.26l-2.42-2.55ZM169.57,95.5c-.35.22-.52.58-.52,1.07,0,.43.14.82.42,1.16.28.34.67.68,1.17,1.03.62-.29,1.1-.59,1.44-.9.34-.3.51-.7.51-1.18,0-.21-.04-.43-.1-.68-.12-.28-.34-.48-.65-.62-.31-.14-.63-.21-.96-.21-.52,0-.95.11-1.3.34Z"/>
    <path class="cls-1" d="M198.28,110.63l-.26-1.46c-.73.68-1.5,1.15-2.3,1.43-.81.28-1.75.42-2.82.42-1.39,0-2.54-.35-3.47-1.05-.93-.7-1.39-1.72-1.39-3.05,0-.88.19-1.62.57-2.2.38-.58.88-1.02,1.5-1.33.62-.3,1.25-.52,1.91-.65.66-.13,1.47-.25,2.44-.38,1.16-.14,2-.29,2.51-.46.51-.16.77-.47.77-.92s-.19-.73-.56-.88c-.37-.16-.78-.23-1.21-.23-.49,0-.91.09-1.27.27-.36.18-.57.53-.62,1.05h-5.2c0-1.49.59-2.63,1.77-3.41,1.18-.78,3.07-1.17,5.67-1.17,1.56,0,2.8.13,3.73.4.93.27,1.61.65,2.05,1.14.44.49.73,1.06.86,1.69.13.63.2,1.43.2,2.41v6.37c0,.43.04.77.12,1,.08.23.28.48.61.74v.26h-5.59ZM197.17,107.17c.39-.52.58-1.22.58-2.11l-.03-.23v-.23c-.42.19-1.05.38-1.9.57-.78.17-1.34.36-1.69.56s-.52.56-.52,1.08c0,.35.15.62.46.83.3.21.72.31,1.26.31.83,0,1.44-.26,1.83-.78Z"/>
    <path class="cls-1" d="M210.31,97.01h4.91v2.76h.05c.75-2.1,2.14-3.15,4.19-3.15.1,0,.26.02.47.05l.23.03v5.41c-.07-.02-.19-.03-.36-.05-.33-.07-.58-.1-.75-.1-1.14,0-1.98.3-2.52.91-.54.61-.81,1.63-.81,3.07v4.71h-5.41v-13.62Z"/>
    <path class="cls-1" d="M235.38,110.63c-1.3.07-2.32.1-3.07.1-1.11,0-1.98-.07-2.61-.22-.63-.15-1.11-.4-1.44-.75s-.55-.84-.66-1.44c-.11-.61-.17-1.44-.17-2.5v-5.69h-1.92v-3.12h2v-4.24h5.33v4.24h2.6v3.12h-2.6v4.94c0,.66.1,1.11.31,1.34.21.23.67.35,1.38.35h.86v3.87Z"/>
    <path class="cls-1" d="M246.67,106.39c0,.54.19.95.57,1.25.36.28.81.42,1.33.42.48,0,.89-.09,1.22-.29.33-.19.49-.5.49-.94,0-.38-.23-.66-.68-.85-.45-.18-1.17-.38-2.16-.58-.82-.16-1.51-.31-2.09-.47-.58-.16-1.13-.39-1.65-.69-.52-.3-.95-.71-1.27-1.22-.33-.51-.49-1.15-.49-1.91,0-.83.19-1.54.57-2.13.38-.59.89-1.06,1.52-1.4s1.33-.59,2.08-.74,1.51-.22,2.27-.22c.83,0,1.62.06,2.37.18s1.44.34,2.08.65c.64.31,1.17.75,1.59,1.31s.66,1.28.73,2.14h-4.91c-.05-.42-.23-.75-.52-.99-.28-.23-.64-.34-1.09-.34-.49,0-.86.08-1.13.23-.27.16-.4.4-.4.73s.22.58.65.74c.43.17,1.14.35,2.13.56.88.19,1.62.37,2.21.55.59.17,1.17.42,1.73.73.56.31,1.02.73,1.37,1.25.35.52.52,1.15.52,1.9,0,1.47-.62,2.63-1.85,3.48-1.23.85-3.06,1.27-5.49,1.27-.85,0-1.66-.07-2.42-.22-.76-.15-1.47-.4-2.12-.75-.65-.36-1.18-.84-1.59-1.44-.41-.61-.65-1.34-.71-2.21h5.15Z"/>
    <path class="cls-1" d="M262.56,110.63v-18.72h14.56v4.37h-8.42v3.41h6.71v4.37h-6.71v6.58h-6.14Z"/>
    <path class="cls-1" d="M287.49,105.04c0,.78.26,1.42.79,1.92s1.16.75,1.88.75c.45,0,.85-.1,1.21-.3s.63-.5.82-.9h5.17c-.23.82-.59,1.51-1.09,2.09-.5.58-1.1,1.04-1.79,1.39s-1.43.6-2.22.77c-.79.17-1.6.25-2.43.25-1.09,0-2.11-.16-3.05-.47-.95-.31-1.77-.77-2.47-1.38s-1.25-1.35-1.64-2.24c-.39-.88-.58-1.88-.58-2.99s.2-2.09.58-3c.39-.91.94-1.69,1.64-2.34.7-.65,1.52-1.14,2.46-1.48.94-.34,1.95-.51,3.04-.51,1.23,0,2.34.2,3.33.6.99.4,1.83.97,2.53,1.72.7.75,1.24,1.64,1.6,2.68.36,1.04.55,2.18.55,3.43h-10.32ZM292.4,102.29c0-.62-.24-1.17-.71-1.65s-1.04-.71-1.68-.71c-.8,0-1.42.21-1.86.62s-.66,1-.66,1.74h4.91Z"/>
    <path class="cls-1" d="M308.56,106.39c0,.54.19.95.57,1.25.36.28.81.42,1.33.42.48,0,.89-.09,1.22-.29.33-.19.49-.5.49-.94,0-.38-.23-.66-.68-.85-.45-.18-1.17-.38-2.16-.58-.82-.16-1.51-.31-2.09-.47-.58-.16-1.13-.39-1.65-.69-.52-.3-.95-.71-1.27-1.22-.33-.51-.49-1.15-.49-1.91,0-.83.19-1.54.57-2.13.38-.59.89-1.06,1.52-1.4s1.33-.59,2.08-.74,1.51-.22,2.27-.22c.83,0,1.62.06,2.37.18s1.44.34,2.08.65c.64.31,1.17.75,1.59,1.31s.66,1.28.73,2.14h-4.91c-.05-.42-.23-.75-.52-.99-.28-.23-.64-.34-1.09-.34-.49,0-.86.08-1.13.23-.27.16-.4.4-.4.73s.22.58.65.74c.43.17,1.14.35,2.13.56.88.19,1.62.37,2.21.55.59.17,1.17.42,1.73.73.56.31,1.02.73,1.37,1.25.35.52.52,1.15.52,1.9,0,1.47-.62,2.63-1.85,3.48-1.23.85-3.06,1.27-5.49,1.27-.85,0-1.66-.07-2.42-.22-.76-.15-1.47-.4-2.12-.75-.65-.36-1.18-.84-1.59-1.44-.41-.61-.65-1.34-.71-2.21h5.15Z"/>
    <path class="cls-1" d="M332.75,110.63c-1.3.07-2.32.1-3.07.1-1.11,0-1.98-.07-2.61-.22-.63-.15-1.11-.4-1.44-.75s-.55-.84-.66-1.44c-.11-.61-.17-1.44-.17-2.5v-5.69h-1.92v-3.12h2v-4.24h5.33v4.24h2.6v3.12h-2.6v4.94c0,.66.1,1.11.31,1.34.21.23.67.35,1.38.35h.86v3.87Z"/>
    <path class="cls-1" d="M339.78,110.63v-13.62h5.41v13.62h-5.41Z"/>
    <path class="cls-1" d="M351.1,97.01h5.41l2.39,8.61,2.37-8.61h5.2l-4.6,13.62h-6.03l-4.73-13.62Z"/>
    <path class="cls-1" d="M381.26,110.63l-.26-1.46c-.73.68-1.5,1.15-2.3,1.43s-1.75.42-2.82.42c-1.39,0-2.54-.35-3.47-1.05-.93-.7-1.39-1.72-1.39-3.05,0-.88.19-1.62.57-2.2.38-.58.88-1.02,1.5-1.33.62-.3,1.25-.52,1.91-.65.66-.13,1.47-.25,2.44-.38,1.16-.14,2-.29,2.51-.46.51-.16.77-.47.77-.92s-.19-.73-.56-.88c-.37-.16-.78-.23-1.21-.23-.49,0-.91.09-1.27.27-.36.18-.57.53-.62,1.05h-5.2c0-1.49.59-2.63,1.77-3.41,1.18-.78,3.07-1.17,5.67-1.17,1.56,0,2.8.13,3.73.4.93.27,1.61.65,2.05,1.14.44.49.73,1.06.86,1.69.13.63.2,1.43.2,2.41v6.37c0,.43.04.77.12,1,.08.23.28.48.61.74v.26h-5.59ZM380.16,107.17c.39-.52.58-1.22.58-2.11l-.03-.23v-.23c-.42.19-1.05.38-1.9.57-.78.17-1.34.36-1.69.56s-.52.56-.52,1.08c0,.35.15.62.46.83.3.21.72.31,1.26.31.83,0,1.44-.26,1.83-.78Z"/>
    <path class="cls-1" d="M393.41,110.63v-18.72h5.41v18.72h-5.41Z"/>
  </g>
</symbol>
<symbol id="globe" viewBox="0 0 420 420">
<path d="M357.1,62.9C318.1,23.9,266.2,2.3,211,2h-2.1C94.2,2.6,1.4,96.4,2,211.1C2.6,325.4,95.8,418,210,418c0.3,0,0.7,0,1,0c55.6-0.3,107.7-22.2,146.8-61.7c39.1-39.5,60.5-91.8,60.2-147.4C417.7,153.8,396.1,101.9,357.1,62.9z M322.6,201c-0.9-24.9-5.4-49.3-13.2-72.6c16.6-6.6,32.8-14.9,48.1-25c20.6,28.4,32.5,62.1,34.2,97.6H322.6z M391.7,219c-1.7,35.5-13.6,69.2-34.3,97.6c-15.2-9.9-31.1-18.1-47.5-24.7c6.2-18.9,10.2-38.7,11.9-59.1c0.4-4.6,0.7-9.2,0.8-13.8H391.7z M346.1,89.2c-13.8,8.9-28.2,16.4-43.1,22.3c-10.1-24.2-24-47-41.4-67.6c-3.2-3.8-6.6-7.5-10-11.2c32.7,7.6,62.8,24.2,87,48.5C341.2,83.8,343.7,86.5,346.1,89.2z M223.4,391.5c-1.5,0.1-3,0.2-4.4,0.3V290.9c22.9,0.8,45.7,4.7,67.7,11.8C272.9,336.5,251.4,366.8,223.4,391.5z M172.2,366.4c-16.4-19.4-29.5-40.9-38.9-63.8c22-7,44.8-11,67.7-11.8v101c-1.4-0.1-2.8-0.2-4.2-0.3C188,383.8,179.8,375.3,172.2,366.4z M198.9,28.3c0.7,0,1.4-0.1,2.1-0.1V129c-22.7-0.8-45.2-4.7-67-11.6C148.3,83.4,170.2,53.1,198.9,28.3z M247.8,55.5c16,19,28.8,39.9,38.2,62.1c-21.8,6.9-44.4,10.8-67,11.6v-101c0.6,0,1.2,0.1,1.8,0.1C230.5,36.6,239.6,45.8,247.8,55.5z M201,147.2V201h-85.5c0.2-3.4,0.4-6.8,0.7-10.2c1.6-19.4,5.5-38.3,11.5-56.3C151.5,142.1,176.2,146.4,201,147.2z M201,219v53.9c-24.9,0.8-49.9,5.1-73.9,12.9c-7-21.5-11-43.9-11.7-66.8H201z M219,272.8V219h85.5c-0.1,4-0.4,8.1-0.7,12.2c-1.5,18.8-5.2,37-10.9,54.5C268.9,277.9,244,273.6,219,272.8z M219,201v-53.9c24.7-0.8,49.4-5,73.3-12.7c7.2,21.4,11.3,43.8,12.2,66.6H219z M168.1,32.8c-21.9,23-39.1,49.5-51.1,78.5c-14.9-5.9-29.3-13.3-43-22.2c2.1-2.4,4.4-4.8,6.6-7.1C105,57.3,135.2,40.6,168.1,32.8z M98.2,189.1c-0.3,4-0.5,7.9-0.7,11.8H28.2c1.7-35.5,13.6-69.2,34.3-97.7c15.4,10,31.5,18.4,48.1,25C104.2,147.7,100,168.1,98.2,189.1z M110,291.8c-16.4,6.6-32.3,14.8-47.5,24.8c-20.1-27.7-32.6-61.3-34.3-97.7h69.1C98,243.9,102.3,268.4,110,291.8z M73.9,330.7c13.5-8.7,27.7-16.1,42.4-21.9c10.2,24.8,24.3,48.2,42.1,69.3c2.4,2.9,4.9,5.7,7.5,8.5C129.8,377.6,97.9,357.7,73.9,330.7z M254.2,386.6c21.2-22.9,37.9-49.1,49.5-77.7c14.6,5.9,28.8,13.2,42.3,21.9c-2.2,2.4-4.4,4.8-6.7,7.2C315.5,362.1,286.2,378.7,254.2,386.6z"/>
</symbol>
</defs>
</svg>


